<svg xmlns="http://www.w3.org/2000/svg" width="auto" height="auto" viewBox="0 0 3378.57 2178.815">
  <g id="catVector" transform="translate(-458.061 -856.474)">
    <g id="Group_2" data-name="Group 2" transform="translate(1095.763 1272.205)">
      <path id="Path_1" data-name="Path 1" d="M3.284,788.633a3.271,3.271,0,0,0,3.176-2.459l94.7-368.08A547.707,547.707,0,0,1,631.962,6.557a3.279,3.279,0,1,0,0-6.557A554.251,554.251,0,0,0,94.807,416.454L.107,784.535a3.236,3.236,0,0,0,.352,2.487,3.318,3.318,0,0,0,2,1.509q.106.029.211.048t.208.032c.069.008.137.014.2.017S3.22,788.633,3.284,788.633Z" fill="#2d02a7"/>
    </g>
    <g id="Group_88" data-name="Group 88" transform="translate(934.948 1571.155)">
      <path id="Path_2" data-name="Path 2" d="M0,267.5V75.885A75.893,75.893,0,0,1,75.9,0h423.55a3.275,3.275,0,0,1,3.279,3.279V1231.664a3.268,3.268,0,0,1-3.279,3.278H75.9a3.267,3.267,0,0,1-2.322-.957,3.258,3.258,0,0,1-.7-1.042,3.293,3.293,0,0,1-.256-1.279v-69.418a75.362,75.362,0,0,1-28.367-6.84A75.874,75.874,0,0,1,0,1086.424v-191.6A75.893,75.893,0,0,1,72.619,819V752.784a75.362,75.362,0,0,1-28.367-6.84A75.874,75.874,0,0,1,0,676.963V485.36a75.9,75.9,0,0,1,72.619-75.822v-66.2a75.4,75.4,0,0,1-28.367-6.847A75.885,75.885,0,0,1,0,267.5Z" fill="#2d02a7"/>
      <g id="Group_3" data-name="Group 3" transform="translate(0 409.462)">
        <path id="Rectangle_1" data-name="Rectangle 1" d="M72.615,336.845H459.847V0H72.615A72.555,72.555,0,0,0,0,72.615V264.23a72.555,72.555,0,0,0,72.615,72.615Z" transform="translate(3.288 3.273)" fill="#25beef"/>
        <path id="Path_3" data-name="Path 3" d="M75.9,343.4H463.125a3.269,3.269,0,0,0,3.279-3.279V3.278A3.269,3.269,0,0,0,463.125,0H75.9A75.893,75.893,0,0,0,0,75.9V267.5a75.893,75.893,0,0,0,75.9,75.9Zm383.949-6.557H75.9A69.333,69.333,0,0,1,6.557,267.5V75.9A69.333,69.333,0,0,1,75.9,6.557H459.847Z" fill="#2d02a7"/>
      </g>
      <g id="Group_4" data-name="Group 4">
        <path id="Rectangle_2" data-name="Rectangle 2" d="M72.615,336.845H459.847V0H72.615A72.555,72.555,0,0,0,0,72.615V264.23a72.555,72.555,0,0,0,72.615,72.615Z" transform="translate(3.288 3.275)" fill="#25beef"/>
        <path id="Path_4" data-name="Path 4" d="M75.9,343.4H463.125a3.276,3.276,0,0,0,3.279-3.279V3.279A3.275,3.275,0,0,0,463.125,0H75.9A75.887,75.887,0,0,0,0,75.885V267.5a75.893,75.893,0,0,0,75.9,75.9Zm383.949-6.558H75.9A69.34,69.34,0,0,1,6.557,267.5V75.885A69.333,69.333,0,0,1,75.9,6.557H459.847Z" fill="#2d02a7"/>
      </g>
      <g id="Group_5" data-name="Group 5" transform="translate(0 818.923)">
        <path id="Rectangle_3" data-name="Rectangle 3" d="M72.615,336.845H459.847V0H72.615A72.555,72.555,0,0,0,0,72.615V264.23a72.555,72.555,0,0,0,72.615,72.615Z" transform="translate(3.288 3.271)" fill="#25beef"/>
        <path id="Path_5" data-name="Path 5" d="M75.9,343.4H463.125a3.269,3.269,0,0,0,3.279-3.279V3.279A3.268,3.268,0,0,0,463.125,0H75.9A75.894,75.894,0,0,0,0,75.9V267.5a75.893,75.893,0,0,0,75.9,75.9Zm383.949-6.558H75.9A69.332,69.332,0,0,1,6.557,267.5V75.9A69.332,69.332,0,0,1,75.9,6.558H459.847Z" fill="#2d02a7"/>
      </g>
      <g id="Group_84" data-name="Group 84" transform="translate(387.253)">
        <g id="Group_6" data-name="Group 6">
          <path id="Rectangle_4" data-name="Rectangle 4" d="M72.615,336.845H762.457a72.554,72.554,0,0,0,72.615-72.615V72.615A72.555,72.555,0,0,0,762.457,0H72.615A72.555,72.555,0,0,0,0,72.615V264.23a72.555,72.555,0,0,0,72.615,72.615Z" transform="translate(3.267 3.275)" fill="#fff"/>
          <path id="Path_6" data-name="Path 6" d="M75.872,343.4H765.72a75.894,75.894,0,0,0,75.9-75.9V75.885A75.893,75.893,0,0,0,765.72,0H75.872A75.885,75.885,0,0,0,0,75.885V267.5a75.879,75.879,0,0,0,75.872,75.9ZM765.72,6.557a69.326,69.326,0,0,1,69.341,69.328V267.5a69.338,69.338,0,0,1-69.341,69.341H75.872a69.088,69.088,0,0,1-48.989-20.334A69.139,69.139,0,0,1,6.557,267.5V75.885A69.319,69.319,0,0,1,75.872,6.557Z" fill="#2d02a7"/>
        </g>
        <g id="Group_7" data-name="Group 7" transform="translate(0 409.462)">
          <path id="Rectangle_5" data-name="Rectangle 5" d="M72.615,336.845H762.457a72.554,72.554,0,0,0,72.615-72.615V72.615A72.555,72.555,0,0,0,762.457,0H72.615A72.555,72.555,0,0,0,0,72.615V264.23a72.555,72.555,0,0,0,72.615,72.615Z" transform="translate(3.267 3.273)" fill="#fff"/>
          <path id="Path_7" data-name="Path 7" d="M75.872,343.4H765.72a75.894,75.894,0,0,0,75.9-75.9V75.9A75.894,75.894,0,0,0,765.72,0H75.872A75.891,75.891,0,0,0,0,75.9V267.5a75.879,75.879,0,0,0,75.872,75.9ZM765.72,6.557A69.332,69.332,0,0,1,835.061,75.9V267.5a69.333,69.333,0,0,1-69.341,69.341H75.872A69.332,69.332,0,0,1,6.557,267.5V75.9A69.319,69.319,0,0,1,75.872,6.557Z" fill="#2d02a7"/>
        </g>
        <g id="Group_8" data-name="Group 8" transform="translate(0 818.923)">
          <path id="Rectangle_6" data-name="Rectangle 6" d="M72.615,336.845H762.457a72.554,72.554,0,0,0,72.615-72.615V72.615A72.555,72.555,0,0,0,762.457,0H72.615A72.555,72.555,0,0,0,0,72.615V264.23a72.555,72.555,0,0,0,72.615,72.615Z" transform="translate(3.267 3.271)" fill="#fff"/>
          <path id="Path_8" data-name="Path 8" d="M75.872,343.4H765.72a75.894,75.894,0,0,0,75.9-75.9V75.9A75.894,75.894,0,0,0,765.72,0H75.872A75.893,75.893,0,0,0,0,75.9V267.5a75.879,75.879,0,0,0,75.872,75.9ZM765.72,6.558A69.332,69.332,0,0,1,835.061,75.9V267.5a69.333,69.333,0,0,1-69.341,69.341H75.872A69.331,69.331,0,0,1,6.557,267.5V75.9A69.318,69.318,0,0,1,75.872,6.558Z" fill="#2d02a7"/>
        </g>
        <g id="Group_9" data-name="Group 9" transform="translate(115.82 224.751)">
          <path id="Ellipse_2" data-name="Ellipse 2" d="M14.523,0a14.478,14.478,0,1,0,5.653,1.141A14.477,14.477,0,0,0,14.523,0Z" fill="#25beef"/>
        </g>
        <g id="Group_10" data-name="Group 10" transform="translate(152.128 188.443)">
          <path id="Ellipse_3" data-name="Ellipse 3" d="M14.523,0a14.478,14.478,0,1,0,5.653,1.141A14.477,14.477,0,0,0,14.523,0Z" fill="#25beef"/>
        </g>
        <g id="Group_11" data-name="Group 11" transform="translate(115.82 152.136)">
          <path id="Ellipse_4" data-name="Ellipse 4" d="M14.523,0a14.478,14.478,0,1,0,5.653,1.141A14.477,14.477,0,0,0,14.523,0Z" fill="#25beef"/>
        </g>
        <g id="Group_12" data-name="Group 12" transform="translate(188.435 224.751)">
          <path id="Ellipse_5" data-name="Ellipse 5" d="M14.523,0a14.478,14.478,0,1,0,5.653,1.141A14.477,14.477,0,0,0,14.523,0Z" fill="#25beef"/>
        </g>
        <g id="Group_13" data-name="Group 13" transform="translate(188.435 152.136)">
          <path id="Ellipse_6" data-name="Ellipse 6" d="M14.523,0a14.478,14.478,0,1,0,5.653,1.141A14.477,14.477,0,0,0,14.523,0Z" fill="#25beef"/>
        </g>
        <g id="Group_14" data-name="Group 14" transform="translate(152.128 115.828)">
          <path id="Ellipse_7" data-name="Ellipse 7" d="M14.523,0a14.478,14.478,0,1,0,5.653,1.141A14.477,14.477,0,0,0,14.523,0Z" fill="#25beef"/>
        </g>
        <g id="Group_15" data-name="Group 15" transform="translate(115.82 79.521)">
          <path id="Ellipse_8" data-name="Ellipse 8" d="M14.523,0a14.478,14.478,0,1,0,5.653,1.141A14.477,14.477,0,0,0,14.523,0Z" fill="#25beef"/>
        </g>
        <g id="Group_16" data-name="Group 16" transform="translate(188.435 79.521)">
          <path id="Ellipse_9" data-name="Ellipse 9" d="M14.523,0a14.478,14.478,0,1,0,5.653,1.141A14.477,14.477,0,0,0,14.523,0Z" fill="#25beef"/>
        </g>
        <g id="Group_17" data-name="Group 17" transform="translate(224.743 188.443)">
          <path id="Ellipse_10" data-name="Ellipse 10" d="M14.523,0a14.478,14.478,0,1,0,5.653,1.141A14.477,14.477,0,0,0,14.523,0Z" fill="#25beef"/>
        </g>
        <g id="Group_18" data-name="Group 18" transform="translate(261.05 224.751)">
          <path id="Ellipse_11" data-name="Ellipse 11" d="M14.523,0a14.478,14.478,0,1,0,5.653,1.141A14.477,14.477,0,0,0,14.523,0Z" fill="#25beef"/>
        </g>
        <g id="Group_19" data-name="Group 19" transform="translate(261.05 152.136)">
          <path id="Ellipse_12" data-name="Ellipse 12" d="M14.523,0a14.478,14.478,0,1,0,5.653,1.141A14.477,14.477,0,0,0,14.523,0Z" fill="#25beef"/>
        </g>
        <g id="Group_20" data-name="Group 20" transform="translate(224.743 115.828)">
          <path id="Ellipse_13" data-name="Ellipse 13" d="M14.523,0a14.478,14.478,0,1,0,5.653,1.141A14.477,14.477,0,0,0,14.523,0Z" fill="#25beef"/>
        </g>
        <g id="Group_21" data-name="Group 21" transform="translate(261.05 79.521)">
          <path id="Ellipse_14" data-name="Ellipse 14" d="M14.523,0a14.478,14.478,0,1,0,5.653,1.141A14.477,14.477,0,0,0,14.523,0Z" fill="#25beef"/>
        </g>
        <g id="Group_22" data-name="Group 22" transform="translate(297.358 188.443)">
          <path id="Ellipse_15" data-name="Ellipse 15" d="M14.523,0a14.478,14.478,0,1,0,5.653,1.141A14.477,14.477,0,0,0,14.523,0Z" fill="#25beef"/>
        </g>
        <g id="Group_23" data-name="Group 23" transform="translate(333.665 224.751)">
          <path id="Ellipse_16" data-name="Ellipse 16" d="M14.523,0a14.478,14.478,0,1,0,5.653,1.141A14.477,14.477,0,0,0,14.523,0Z" fill="#25beef"/>
        </g>
        <g id="Group_24" data-name="Group 24" transform="translate(333.665 152.136)">
          <path id="Ellipse_17" data-name="Ellipse 17" d="M14.523,0a14.478,14.478,0,1,0,5.653,1.141A14.477,14.477,0,0,0,14.523,0Z" fill="#25beef"/>
        </g>
        <g id="Group_25" data-name="Group 25" transform="translate(297.358 115.828)">
          <path id="Ellipse_18" data-name="Ellipse 18" d="M14.523,0a14.478,14.478,0,1,0,5.653,1.141A14.477,14.477,0,0,0,14.523,0Z" fill="#25beef"/>
        </g>
        <g id="Group_26" data-name="Group 26" transform="translate(333.665 79.521)">
          <path id="Ellipse_19" data-name="Ellipse 19" d="M14.523,0a14.478,14.478,0,1,0,5.653,1.141A14.477,14.477,0,0,0,14.523,0Z" fill="#25beef"/>
        </g>
        <g id="Group_27" data-name="Group 27" transform="translate(369.973 188.443)">
          <path id="Ellipse_20" data-name="Ellipse 20" d="M14.523,0a14.478,14.478,0,1,0,5.653,1.141A14.477,14.477,0,0,0,14.523,0Z" fill="#25beef"/>
        </g>
        <g id="Group_28" data-name="Group 28" transform="translate(406.28 224.751)">
          <path id="Ellipse_21" data-name="Ellipse 21" d="M14.523,0a14.478,14.478,0,1,0,5.653,1.141A14.477,14.477,0,0,0,14.523,0Z" fill="#25beef"/>
        </g>
        <g id="Group_29" data-name="Group 29" transform="translate(406.28 152.136)">
          <path id="Ellipse_22" data-name="Ellipse 22" d="M14.523,0a14.478,14.478,0,1,0,5.653,1.141A14.477,14.477,0,0,0,14.523,0Z" fill="#25beef"/>
        </g>
        <g id="Group_30" data-name="Group 30" transform="translate(369.973 115.828)">
          <path id="Ellipse_23" data-name="Ellipse 23" d="M14.523,0a14.478,14.478,0,1,0,5.653,1.141A14.477,14.477,0,0,0,14.523,0Z" fill="#25beef"/>
        </g>
        <g id="Group_31" data-name="Group 31" transform="translate(406.28 79.521)">
          <path id="Ellipse_24" data-name="Ellipse 24" d="M14.523,0a14.478,14.478,0,1,0,5.653,1.141A14.477,14.477,0,0,0,14.523,0Z" fill="#25beef"/>
        </g>
        <g id="Group_32" data-name="Group 32" transform="translate(115.82 634.21)">
          <path id="Ellipse_25" data-name="Ellipse 25" d="M14.523,0a14.478,14.478,0,1,0,5.653,1.141A14.477,14.477,0,0,0,14.523,0Z" fill="#25beef"/>
        </g>
        <g id="Group_33" data-name="Group 33" transform="translate(152.128 597.903)">
          <path id="Ellipse_26" data-name="Ellipse 26" d="M14.523,0a14.478,14.478,0,1,0,5.653,1.141A14.477,14.477,0,0,0,14.523,0Z" fill="#25beef"/>
        </g>
        <g id="Group_34" data-name="Group 34" transform="translate(115.82 561.595)">
          <path id="Ellipse_27" data-name="Ellipse 27" d="M14.523,0a14.478,14.478,0,1,0,5.653,1.141A14.477,14.477,0,0,0,14.523,0Z" fill="#25beef"/>
        </g>
        <g id="Group_35" data-name="Group 35" transform="translate(188.435 634.21)">
          <path id="Ellipse_28" data-name="Ellipse 28" d="M14.523,0a14.478,14.478,0,1,0,5.653,1.141A14.477,14.477,0,0,0,14.523,0Z" fill="#25beef"/>
        </g>
        <g id="Group_36" data-name="Group 36" transform="translate(188.435 561.595)">
          <path id="Ellipse_29" data-name="Ellipse 29" d="M14.523,0a14.478,14.478,0,1,0,5.653,1.141A14.477,14.477,0,0,0,14.523,0Z" fill="#25beef"/>
        </g>
        <g id="Group_37" data-name="Group 37" transform="translate(152.128 525.288)">
          <path id="Ellipse_30" data-name="Ellipse 30" d="M14.523,0a14.478,14.478,0,1,0,5.653,1.141A14.477,14.477,0,0,0,14.523,0Z" fill="#25beef"/>
        </g>
        <g id="Group_38" data-name="Group 38" transform="translate(115.82 488.98)">
          <path id="Ellipse_31" data-name="Ellipse 31" d="M14.523,0a14.478,14.478,0,1,0,5.653,1.141A14.477,14.477,0,0,0,14.523,0Z" fill="#25beef"/>
        </g>
        <g id="Group_39" data-name="Group 39" transform="translate(188.435 488.98)">
          <path id="Ellipse_32" data-name="Ellipse 32" d="M14.523,0a14.478,14.478,0,1,0,5.653,1.141A14.477,14.477,0,0,0,14.523,0Z" fill="#25beef"/>
        </g>
        <g id="Group_40" data-name="Group 40" transform="translate(224.743 597.903)">
          <path id="Ellipse_33" data-name="Ellipse 33" d="M14.523,0a14.478,14.478,0,1,0,5.653,1.141A14.477,14.477,0,0,0,14.523,0Z" fill="#25beef"/>
        </g>
        <g id="Group_41" data-name="Group 41" transform="translate(261.05 634.21)">
          <path id="Ellipse_34" data-name="Ellipse 34" d="M14.523,0a14.478,14.478,0,1,0,5.653,1.141A14.477,14.477,0,0,0,14.523,0Z" fill="#25beef"/>
        </g>
        <g id="Group_42" data-name="Group 42" transform="translate(261.05 561.595)">
          <path id="Ellipse_35" data-name="Ellipse 35" d="M14.523,0a14.478,14.478,0,1,0,5.653,1.141A14.477,14.477,0,0,0,14.523,0Z" fill="#25beef"/>
        </g>
        <g id="Group_43" data-name="Group 43" transform="translate(224.743 525.288)">
          <path id="Ellipse_36" data-name="Ellipse 36" d="M14.523,0a14.478,14.478,0,1,0,5.653,1.141A14.477,14.477,0,0,0,14.523,0Z" fill="#25beef"/>
        </g>
        <g id="Group_44" data-name="Group 44" transform="translate(261.05 488.98)">
          <path id="Ellipse_37" data-name="Ellipse 37" d="M14.523,0a14.478,14.478,0,1,0,5.653,1.141A14.477,14.477,0,0,0,14.523,0Z" fill="#25beef"/>
        </g>
        <g id="Group_45" data-name="Group 45" transform="translate(297.358 597.903)">
          <path id="Ellipse_38" data-name="Ellipse 38" d="M14.523,0a14.478,14.478,0,1,0,5.653,1.141A14.477,14.477,0,0,0,14.523,0Z" fill="#25beef"/>
        </g>
        <g id="Group_46" data-name="Group 46" transform="translate(333.665 634.21)">
          <path id="Ellipse_39" data-name="Ellipse 39" d="M14.523,0a14.478,14.478,0,1,0,5.653,1.141A14.477,14.477,0,0,0,14.523,0Z" fill="#25beef"/>
        </g>
        <g id="Group_47" data-name="Group 47" transform="translate(333.665 561.595)">
          <path id="Ellipse_40" data-name="Ellipse 40" d="M14.523,0a14.478,14.478,0,1,0,5.653,1.141A14.477,14.477,0,0,0,14.523,0Z" fill="#25beef"/>
        </g>
        <g id="Group_48" data-name="Group 48" transform="translate(297.358 525.288)">
          <path id="Ellipse_41" data-name="Ellipse 41" d="M14.523,0a14.478,14.478,0,1,0,5.653,1.141A14.477,14.477,0,0,0,14.523,0Z" fill="#25beef"/>
        </g>
        <g id="Group_49" data-name="Group 49" transform="translate(333.665 488.98)">
          <path id="Ellipse_42" data-name="Ellipse 42" d="M14.523,0a14.478,14.478,0,1,0,5.653,1.141A14.477,14.477,0,0,0,14.523,0Z" fill="#25beef"/>
        </g>
        <g id="Group_50" data-name="Group 50" transform="translate(369.973 597.903)">
          <path id="Ellipse_43" data-name="Ellipse 43" d="M14.523,0a14.478,14.478,0,1,0,5.653,1.141A14.477,14.477,0,0,0,14.523,0Z" fill="#25beef"/>
        </g>
        <g id="Group_51" data-name="Group 51" transform="translate(406.28 634.21)">
          <path id="Ellipse_44" data-name="Ellipse 44" d="M14.523,0a14.478,14.478,0,1,0,5.653,1.141A14.477,14.477,0,0,0,14.523,0Z" fill="#25beef"/>
        </g>
        <g id="Group_52" data-name="Group 52" transform="translate(406.28 561.595)">
          <path id="Ellipse_45" data-name="Ellipse 45" d="M14.523,0a14.478,14.478,0,1,0,5.653,1.141A14.477,14.477,0,0,0,14.523,0Z" fill="#25beef"/>
        </g>
        <g id="Group_53" data-name="Group 53" transform="translate(369.973 525.288)">
          <path id="Ellipse_46" data-name="Ellipse 46" d="M14.523,0a14.478,14.478,0,1,0,5.653,1.141A14.477,14.477,0,0,0,14.523,0Z" fill="#25beef"/>
        </g>
        <g id="Group_54" data-name="Group 54" transform="translate(406.28 488.98)">
          <path id="Ellipse_47" data-name="Ellipse 47" d="M14.523,0a14.478,14.478,0,1,0,5.653,1.141A14.477,14.477,0,0,0,14.523,0Z" fill="#25beef"/>
        </g>
        <g id="Group_55" data-name="Group 55" transform="translate(115.82 1043.67)">
          <path id="Ellipse_48" data-name="Ellipse 48" d="M14.523,0a14.478,14.478,0,1,0,5.653,1.141A14.477,14.477,0,0,0,14.523,0Z" fill="#25beef"/>
        </g>
        <g id="Group_56" data-name="Group 56" transform="translate(152.128 1007.363)">
          <path id="Ellipse_49" data-name="Ellipse 49" d="M14.523,0a14.478,14.478,0,1,0,5.653,1.141A14.477,14.477,0,0,0,14.523,0Z" fill="#25beef"/>
        </g>
        <g id="Group_57" data-name="Group 57" transform="translate(115.82 971.055)">
          <path id="Ellipse_50" data-name="Ellipse 50" d="M14.523,0a14.478,14.478,0,1,0,5.653,1.141A14.477,14.477,0,0,0,14.523,0Z" fill="#25beef"/>
        </g>
        <g id="Group_58" data-name="Group 58" transform="translate(188.435 1043.67)">
          <path id="Ellipse_51" data-name="Ellipse 51" d="M14.523,0a14.478,14.478,0,1,0,5.653,1.141A14.477,14.477,0,0,0,14.523,0Z" fill="#25beef"/>
        </g>
        <g id="Group_59" data-name="Group 59" transform="translate(188.435 971.055)">
          <path id="Ellipse_52" data-name="Ellipse 52" d="M14.523,0a14.478,14.478,0,1,0,5.653,1.141A14.477,14.477,0,0,0,14.523,0Z" fill="#25beef"/>
        </g>
        <g id="Group_60" data-name="Group 60" transform="translate(152.128 934.748)">
          <path id="Ellipse_53" data-name="Ellipse 53" d="M14.523,0a14.478,14.478,0,1,0,5.653,1.141A14.477,14.477,0,0,0,14.523,0Z" fill="#25beef"/>
        </g>
        <g id="Group_61" data-name="Group 61" transform="translate(115.82 898.44)">
          <path id="Ellipse_54" data-name="Ellipse 54" d="M14.523,0a14.478,14.478,0,1,0,5.653,1.141A14.477,14.477,0,0,0,14.523,0Z" fill="#25beef"/>
        </g>
        <g id="Group_62" data-name="Group 62" transform="translate(188.435 898.44)">
          <path id="Ellipse_55" data-name="Ellipse 55" d="M14.523,0a14.478,14.478,0,1,0,5.653,1.141A14.477,14.477,0,0,0,14.523,0Z" fill="#25beef"/>
        </g>
        <g id="Group_63" data-name="Group 63" transform="translate(224.743 1007.363)">
          <path id="Ellipse_56" data-name="Ellipse 56" d="M14.523,0a14.478,14.478,0,1,0,5.653,1.141A14.477,14.477,0,0,0,14.523,0Z" fill="#25beef"/>
        </g>
        <g id="Group_64" data-name="Group 64" transform="translate(261.05 1043.67)">
          <path id="Ellipse_57" data-name="Ellipse 57" d="M14.523,0a14.478,14.478,0,1,0,5.653,1.141A14.477,14.477,0,0,0,14.523,0Z" fill="#25beef"/>
        </g>
        <g id="Group_65" data-name="Group 65" transform="translate(261.05 971.055)">
          <path id="Ellipse_58" data-name="Ellipse 58" d="M14.523,0a14.478,14.478,0,1,0,5.653,1.141A14.477,14.477,0,0,0,14.523,0Z" fill="#25beef"/>
        </g>
        <g id="Group_66" data-name="Group 66" transform="translate(224.743 934.748)">
          <path id="Ellipse_59" data-name="Ellipse 59" d="M14.523,0a14.478,14.478,0,1,0,5.653,1.141A14.477,14.477,0,0,0,14.523,0Z" fill="#25beef"/>
        </g>
        <g id="Group_67" data-name="Group 67" transform="translate(261.05 898.44)">
          <path id="Ellipse_60" data-name="Ellipse 60" d="M14.523,0a14.478,14.478,0,1,0,5.653,1.141A14.477,14.477,0,0,0,14.523,0Z" fill="#25beef"/>
        </g>
        <g id="Group_68" data-name="Group 68" transform="translate(297.358 1007.363)">
          <path id="Ellipse_61" data-name="Ellipse 61" d="M14.523,0a14.478,14.478,0,1,0,5.653,1.141A14.477,14.477,0,0,0,14.523,0Z" fill="#25beef"/>
        </g>
        <g id="Group_69" data-name="Group 69" transform="translate(333.665 1043.67)">
          <path id="Ellipse_62" data-name="Ellipse 62" d="M14.523,0a14.478,14.478,0,1,0,5.653,1.141A14.477,14.477,0,0,0,14.523,0Z" fill="#25beef"/>
        </g>
        <g id="Group_70" data-name="Group 70" transform="translate(333.665 971.055)">
          <path id="Ellipse_63" data-name="Ellipse 63" d="M14.523,0a14.478,14.478,0,1,0,5.653,1.141A14.477,14.477,0,0,0,14.523,0Z" fill="#25beef"/>
        </g>
        <g id="Group_71" data-name="Group 71" transform="translate(297.358 934.748)">
          <path id="Ellipse_64" data-name="Ellipse 64" d="M14.523,0a14.478,14.478,0,1,0,5.653,1.141A14.477,14.477,0,0,0,14.523,0Z" fill="#25beef"/>
        </g>
        <g id="Group_72" data-name="Group 72" transform="translate(333.665 898.44)">
          <path id="Ellipse_65" data-name="Ellipse 65" d="M14.523,0a14.478,14.478,0,1,0,5.653,1.141A14.477,14.477,0,0,0,14.523,0Z" fill="#25beef"/>
        </g>
        <g id="Group_73" data-name="Group 73" transform="translate(369.973 1007.363)">
          <path id="Ellipse_66" data-name="Ellipse 66" d="M14.523,0a14.478,14.478,0,1,0,5.653,1.141A14.477,14.477,0,0,0,14.523,0Z" fill="#25beef"/>
        </g>
        <g id="Group_74" data-name="Group 74" transform="translate(406.28 1043.67)">
          <path id="Ellipse_67" data-name="Ellipse 67" d="M14.523,0a14.478,14.478,0,1,0,5.653,1.141A14.477,14.477,0,0,0,14.523,0Z" fill="#25beef"/>
        </g>
        <g id="Group_75" data-name="Group 75" transform="translate(406.28 971.055)">
          <path id="Ellipse_68" data-name="Ellipse 68" d="M14.523,0a14.478,14.478,0,1,0,5.653,1.141A14.477,14.477,0,0,0,14.523,0Z" fill="#25beef"/>
        </g>
        <g id="Group_76" data-name="Group 76" transform="translate(369.973 934.748)">
          <path id="Ellipse_69" data-name="Ellipse 69" d="M14.523,0a14.478,14.478,0,1,0,5.653,1.141A14.477,14.477,0,0,0,14.523,0Z" fill="#25beef"/>
        </g>
        <g id="Group_77" data-name="Group 77" transform="translate(406.28 898.44)">
          <path id="Ellipse_70" data-name="Ellipse 70" d="M14.523,0a14.478,14.478,0,1,0,5.653,1.141A14.477,14.477,0,0,0,14.523,0Z" fill="#25beef"/>
        </g>
        <g id="Group_78" data-name="Group 78" transform="translate(696.74 912.963)">
          <path id="Rectangle_7" data-name="Rectangle 7" d="M14.523,145.23h0a14.511,14.511,0,0,0,14.523-14.523V14.523A14.511,14.511,0,0,0,14.523,0h0A14.511,14.511,0,0,0,0,14.523V130.707A14.511,14.511,0,0,0,14.523,145.23Z" fill="#25beef"/>
        </g>
        <g id="Group_79" data-name="Group 79" transform="translate(624.125 912.963)">
          <path id="Rectangle_8" data-name="Rectangle 8" d="M14.523,145.23h0a14.511,14.511,0,0,0,14.523-14.523V14.523A14.511,14.511,0,0,0,14.523,0h0A14.511,14.511,0,0,0,0,14.523V130.707A14.511,14.511,0,0,0,14.523,145.23Z" fill="#25beef"/>
        </g>
        <g id="Group_80" data-name="Group 80" transform="translate(696.74 503.504)">
          <path id="Rectangle_9" data-name="Rectangle 9" d="M14.523,145.23h0a14.511,14.511,0,0,0,14.523-14.523V14.523A14.511,14.511,0,0,0,14.523,0h0A14.511,14.511,0,0,0,0,14.523V130.707A14.511,14.511,0,0,0,14.523,145.23Z" fill="#25beef"/>
        </g>
        <g id="Group_81" data-name="Group 81" transform="translate(624.125 503.504)">
          <path id="Rectangle_10" data-name="Rectangle 10" d="M14.523,145.23h0a14.511,14.511,0,0,0,14.523-14.523V14.523A14.511,14.511,0,0,0,14.523,0h0A14.511,14.511,0,0,0,0,14.523V130.707A14.511,14.511,0,0,0,14.523,145.23Z" fill="#25beef"/>
        </g>
        <g id="Group_82" data-name="Group 82" transform="translate(696.74 94.044)">
          <path id="Rectangle_11" data-name="Rectangle 11" d="M14.523,145.23h0a14.511,14.511,0,0,0,14.523-14.523V14.523A14.511,14.511,0,0,0,14.523,0h0A14.511,14.511,0,0,0,0,14.523V130.707A14.511,14.511,0,0,0,14.523,145.23Z" fill="#25beef"/>
        </g>
        <g id="Group_83" data-name="Group 83" transform="translate(624.125 94.044)">
          <path id="Rectangle_12" data-name="Rectangle 12" d="M14.523,145.23h0a14.511,14.511,0,0,0,14.523-14.523V14.523A14.511,14.511,0,0,0,14.523,0h0A14.511,14.511,0,0,0,0,14.523V130.707A14.511,14.511,0,0,0,14.523,145.23Z" fill="#25beef"/>
        </g>
      </g>
      <g id="Group_85" data-name="Group 85" transform="translate(429.774 1155.765)">
        <path id="Rectangle_13" data-name="Rectangle 13" d="M704.805,0H0V72.615H704.805Z" transform="translate(3.288 3.274)" fill="#25beef"/>
        <path id="Path_9" data-name="Path 9" d="M3.279,79.177H708.086a3.268,3.268,0,0,0,3.278-3.278V3.279A3.268,3.268,0,0,0,708.086,0H3.279A3.269,3.269,0,0,0,0,3.279V75.9a3.268,3.268,0,0,0,3.279,3.278ZM704.807,72.62H6.558V6.558H704.807Z" fill="#2d02a7"/>
      </g>
      <g id="Group_86" data-name="Group 86" transform="translate(429.774 746.304)">
        <path id="Rectangle_14" data-name="Rectangle 14" d="M704.805,0H0V72.615H704.805Z" transform="translate(3.288 3.276)" fill="#25beef"/>
        <path id="Path_10" data-name="Path 10" d="M3.279,79.177H708.086a3.269,3.269,0,0,0,3.278-3.279V3.278A3.268,3.268,0,0,0,708.086,0H3.279A3.268,3.268,0,0,0,0,3.278V75.9a3.269,3.269,0,0,0,3.279,3.279Zm701.528-6.558H6.558V6.557H704.807Z" fill="#2d02a7"/>
      </g>
      <g id="Group_87" data-name="Group 87" transform="translate(429.774 336.842)">
        <path id="Rectangle_15" data-name="Rectangle 15" d="M704.805,0H0V72.615H704.805Z" transform="translate(3.288 3.278)" fill="#25beef"/>
        <path id="Path_11" data-name="Path 11" d="M3.279,79.177H708.086a3.269,3.269,0,0,0,3.278-3.279V3.279A3.273,3.273,0,0,0,708.086,0H3.279A3.275,3.275,0,0,0,0,3.279V75.9a3.268,3.268,0,0,0,3.279,3.279ZM704.807,72.62H6.558V6.558H704.807Z" fill="#2d02a7"/>
      </g>
    </g>
    <g id="Group_109" data-name="Group 109" transform="translate(1813 -5.978)">
      <g id="Group_89" data-name="Group 89" transform="translate(798.557 971.075)">
        <path id="Path_12" data-name="Path 12" d="M672.315,1877.892l152.458-40.779a1683.167,1683.167,0,0,0,99.262-197.887,1764.6,1764.6,0,0,0,70.952-201.5,1828.049,1828.049,0,0,0,45.758-203.673,1845.914,1845.914,0,0,0,22.239-204.631,1826.4,1826.4,0,0,0-.724-205.076A1737.353,1737.353,0,0,0,1037.943,620.4a1618.191,1618.191,0,0,0-49.8-201.77,1499.83,1499.83,0,0,0-78.638-198.356q-18.461,15.573-35.777,32.773-17.437,17.314-33.656,36.179-16.323,18.978-31.356,39.423Q793.6,349.2,779.834,371.126l0-.006c-16.013-6.7-33.291-12.885-51.34-18.437-18.261-5.617-37.327-10.591-56.67-14.792-19.581-4.253-39.45-7.715-59.038-10.248a578.677,578.677,0,0,0-57.976-4.682v.006q-13.057-29.62-28.156-59.2-15.2-29.766-32.519-59.476-17.45-29.922-37.1-59.774-19.816-30.089-41.931-60.091c-51.171,53.121-97.819,114.375-139.467,182.44-42.545,69.53-79.587,145.7-110.712,226.94-31.582,82.433-56.845,169.5-75.484,259.431A1840.545,1840.545,0,0,0,53.865,1029.91a1784.13,1784.13,0,0,0,6.693,276.025C69.824,1395.69,86.022,1482.6,109,1564.876c22.649,81.083,51.728,157.1,86.964,226.449,34.495,67.891,74.665,128.952,120.154,181.84L503.672,1923Z" transform="translate(8.851 7.77)" fill="#25beef"/>
        <path id="Path_13" data-name="Path 13" d="M830.925,1847.436l-509.62,136.62a3.888,3.888,0,0,1-.889.134,3.15,3.15,0,0,1-.819-.079,2.65,2.65,0,0,1-.718-.283,2.408,2.408,0,0,1-.586-.476c-44.341-51.4-84.053-110.834-118.514-177.37-35.2-67.962-64.706-142.919-87.93-223.7-23.572-82-40.511-169.433-50.317-260.905a1797.1,1797.1,0,0,1-7.342-285.191A1850.406,1850.406,0,0,1,91.462,750.269c19.405-91.691,45.518-179.322,77.694-261.49,31.7-80.954,69.071-156.054,111.4-224.131C322,198,367.944,138.483,417.676,87.02a2.644,2.644,0,0,1,.572-.448,2.812,2.812,0,0,1,.674-.281,3.171,3.171,0,0,1,.75-.108,3.672,3.672,0,0,1,.8.069,2.053,2.053,0,0,1,.749.148,3.622,3.622,0,0,1,.761.412,5.452,5.452,0,0,1,.72.6,6.307,6.307,0,0,1,.627.724q21.725,29.469,41.357,59.239,19.469,29.515,36.892,59.292,17.291,29.545,32.573,59.318,15.177,29.564,28.373,59.326c18.5.625,37.789,2.3,57.329,4.882,19.308,2.555,38.848,6,58.112,10.214,19.033,4.162,37.8,9.072,55.823,14.612C751.6,360.5,768.711,366.6,784.661,373.2q13.978-22.06,29.243-42.609,15.159-20.412,31.492-39.237,16.21-18.689,33.48-35.726,17.132-16.9,35.212-32.1a2.105,2.105,0,0,1,.491-.308,2.159,2.159,0,0,1,.554-.164,2.089,2.089,0,0,1,.578-.01,1.955,1.955,0,0,1,.563.157,2.954,2.954,0,0,1,.567.287,3.455,3.455,0,0,1,.52.413,3.852,3.852,0,0,1,.453.524,4.1,4.1,0,0,1,.368.619,1510.083,1510.083,0,0,1,77.245,193.7,1614.874,1614.874,0,0,1,50.315,200.03,1725.528,1725.528,0,0,1,25.318,205.765,1836.718,1836.718,0,0,1,.994,211.55,1860.909,1860.909,0,0,1-23.14,211.024,1813.3,1813.3,0,0,1-46.862,205.314,1757.93,1757.93,0,0,1-71.262,199.661,1697.036,1697.036,0,0,1-97.534,193.428,4.994,4.994,0,0,1-.481.67,4.576,4.576,0,0,1-.565.557,3.862,3.862,0,0,1-.624.423A3.084,3.084,0,0,1,830.925,1847.436ZM323.637,1976.144l506.195-134.658a1687.915,1687.915,0,0,0,96.945-192.379,1749.686,1749.686,0,0,0,70.856-198.653,1805.767,1805.767,0,0,0,46.606-204.327,1853.789,1853.789,0,0,0,23.02-210.034,1830.04,1830.04,0,0,0-.943-210.019,1718.6,1718.6,0,0,0-25-204.253A1607.984,1607.984,0,0,0,991.6,423.294a1503.1,1503.1,0,0,0-76.308-192.211q-17.715,15.108-34.523,31.9-16.914,16.9-32.811,35.423-15.988,18.637-30.849,38.839-14.936,20.312-28.633,42.115a2.613,2.613,0,0,1-.615.671,2.459,2.459,0,0,1-1.65.5,2.607,2.607,0,0,1-.9-.222c-16.035-6.7-33.282-12.867-51.271-18.395-18.2-5.593-37.175-10.535-56.424-14.7-19.485-4.219-39.255-7.645-58.772-10.147a579.485,579.485,0,0,0-57.873-4.613,3.23,3.23,0,0,1-1.05-.189,3.864,3.864,0,0,1-.974-.514,4.375,4.375,0,0,1-1.436-1.783q-12.97-29.373-27.9-58.572Q514.6,242.014,497.6,212.839q-17.12-29.377-36.254-58.521-19.285-29.366-40.627-58.462c-48.969,51.275-94.194,110.45-134.973,176.62-41.64,67.566-78.393,142.014-109.567,222.2-31.634,81.367-57.307,168.087-76.392,258.786a1843.3,1843.3,0,0,0-36.692,282.72,1790.348,1790.348,0,0,0,7.171,282.737c9.652,90.7,26.343,177.416,49.586,258.766,22.9,80.161,52.013,154.573,86.753,222.082C240.62,1865.874,279.836,1924.97,323.637,1976.144Z" fill="#2d02a7"/>
      </g>
      <path id="Path_64" data-name="Path 64" d="M1472.232,1706.1l-32.142,8.511-24.22,3.806-28.545,1.359,14.138,37.245,22.292,25.012,27.73,14.68,22.563,3.533,26.8-4.893,25-15.968,21.352-25.67-22.843-9.491-29.438-18.5Z" transform="translate(-31.768 -8)" fill="#fff"/>
      <g id="Group_90" data-name="Group 90">
        <path id="Ellipse_71" data-name="Ellipse 71" d="M85.554,10.661a74.074,74.074,0,0,1,27.958,10.052A80.112,80.112,0,0,1,135.28,40.226a83.358,83.358,0,0,1,13.63,26.159,81.983,81.983,0,0,1,3.533,30.152,77.2,77.2,0,0,1-7.652,28.751,71.958,71.958,0,0,1-17.02,22.321,68.434,68.434,0,0,1-52.961,16.709,73.6,73.6,0,0,1-28.395-9.178,79.742,79.742,0,0,1-22.649-19.257A83.273,83.273,0,0,1,9.3,109.255a82.012,82.012,0,0,1-3.84-31.12,77.089,77.089,0,0,1,8.087-29.627,71.721,71.721,0,0,1,17.9-22.577,68.577,68.577,0,0,1,24.925-13.3A69.292,69.292,0,0,1,85.554,10.661Z" transform="translate(1503.635 1517.775)" fill="#fff"/>
      </g>
      <g id="Group_91" data-name="Group 91" transform="translate(1208.872 1467.942)">
        <path id="Ellipse_72" data-name="Ellipse 72" d="M90.482,11.494a83.36,83.36,0,0,1,29.832,10.369,85.649,85.649,0,0,1,23.279,19.769,83.331,83.331,0,0,1,14.641,26.33,77.8,77.8,0,0,1,3.9,30.214,72.779,72.779,0,0,1-8.021,28.689,71.146,71.146,0,0,1-18.031,22.15,73.124,73.124,0,0,1-25.607,13.516,77.749,77.749,0,0,1-30.741,2.621,83.03,83.03,0,0,1-30.293-9.5,85.642,85.642,0,0,1-24.218-19.522A83.511,83.511,0,0,1,9.7,109.321,77.875,77.875,0,0,1,5.464,78.135a72.7,72.7,0,0,1,8.481-29.56,71.149,71.149,0,0,1,18.97-22.4A73.389,73.389,0,0,1,59.409,13.143,78.212,78.212,0,0,1,90.482,11.494Z" transform="translate(0 0)" fill="#fff"/>
      </g>
      <g id="Group_92" data-name="Group 92">
        <path id="Path_15" data-name="Path 15" d="M1583.82,1685.566a80.3,80.3,0,1,1,80.292-80.3A80.4,80.4,0,0,1,1583.82,1685.566Zm0-154.038a73.741,73.741,0,1,0,73.734,73.734A73.827,73.827,0,0,0,1583.82,1531.528Z" fill="#2d02a7"/>
      </g>
      <g id="Group_93" data-name="Group 93" transform="translate(0 -49)">
        <path id="Path_16" data-name="Path 16" d="M1293.982,1685.566a80.3,80.3,0,1,1,80.292-80.3A80.389,80.389,0,0,1,1293.982,1685.566Zm0-154.038a73.741,73.741,0,1,0,73.734,73.734A73.825,73.825,0,0,0,1293.982,1531.528Z" fill="#2d02a7"/>
      </g>
      <g id="Group_94" data-name="Group 94">
        <circle id="Ellipse_73" data-name="Ellipse 73" cx="20.538" cy="20.538" r="20.538" transform="translate(1587.959 1613.917)" fill="#2d02a7"/>
      </g>
      <g id="Group_95" data-name="Group 95" transform="translate(0 -49)">
        <circle id="Ellipse_74" data-name="Ellipse 74" cx="20.538" cy="20.538" r="20.538" transform="translate(1298.123 1613.917)" fill="#2d02a7"/>
      </g>
      <g id="Group_96" data-name="Group 96" transform="translate(456.462 -395.398) rotate(17)">
        <path id="Path_17" data-name="Path 17" d="M1153.044,1354.321l76.6-11.277a9.1,9.1,0,0,0,6.349-13.9l-38.3-60.04a9.1,9.1,0,0,0-15.694.589l-38.3,71.317A9.1,9.1,0,0,0,1153.044,1354.321Z" fill="#2d02a7"/>
      </g>
      <g id="Group_97" data-name="Group 97" transform="translate(228.655 -224.904) rotate(9)">
        <path id="Path_18" data-name="Path 18" d="M1648.154,1343.044l76.6,11.277a9.1,9.1,0,0,0,9.346-13.312l-38.3-71.317a9.1,9.1,0,0,0-15.7-.589l-38.3,60.04A9.1,9.1,0,0,0,1648.154,1343.044Z" fill="#2d02a7"/>
      </g>
      <g id="Group_98" data-name="Group 98" transform="matrix(0.998, 0.07, -0.07, 0.998, 69.925, -71.179)">
        <path id="Path_19" data-name="Path 19" d="M681.33,2442.689c0,136.491,52.628,263.141,140.343,366.685h360.694c-166.87-231.048-250.731-534.41-250.731-837.342C778.03,2087.557,681.33,2255.71,681.33,2442.689Z" fill="#25beef"/>
        <path id="Path_20" data-name="Path 20" d="M1182.363,2812.655H821.673a3.317,3.317,0,0,1-2.5-1.152C726.845,2702.535,678.048,2575,678.048,2442.693c0-180.512,91.716-353.031,251.62-473.27a3.267,3.267,0,0,1,5.251,2.613c0,315.428,88.821,612.105,250.108,835.419a3.285,3.285,0,0,1-2.664,5.2ZM823.2,2806.1h352.775c-158.6-222.239-246.368-515.586-247.6-827.453-155,118.8-243.768,287.583-243.768,464.048C684.606,2572.947,732.532,2698.59,823.2,2806.1Z" fill="#2d02a7"/>
      </g>
      <g id="Group_99" data-name="Group 99" transform="translate(1313.722 2325.344)">
        <path id="Path_21" data-name="Path 21" d="M226.32,489.531,3.367,510.59a3.131,3.131,0,0,1-1.3-.143,2.829,2.829,0,0,1-1.045-.629A2.858,2.858,0,0,1,.338,508.8a3.213,3.213,0,0,1-.219-1.307L14.89,84.507a98.179,98.179,0,0,1,8.056-35.663,99.26,99.26,0,0,1,8.816-16.067A100.719,100.719,0,0,1,43.51,18.442q1.605-1.623,3.329-3.2t3.585-3.113q1.86-1.538,3.867-3.049t4.176-3.006a3.508,3.508,0,0,1,1.223-.52,3.349,3.349,0,0,1,1.274-.027,3.09,3.09,0,0,1,1.169.458,3.006,3.006,0,0,1,.909.935,3.2,3.2,0,0,1,.451,1.233,3.46,3.46,0,0,1-.059,1.3,3.677,3.677,0,0,1-.533,1.213,3.716,3.716,0,0,1-.97.978q-2.018,1.392-3.883,2.794t-3.592,2.828q-1.727,1.426-3.321,2.882T48.061,23.1A93.3,93.3,0,0,0,37.2,36.377,91.522,91.522,0,0,0,23.8,67.333a90.853,90.853,0,0,0-2.19,16.909L6.97,503.45l216.4-20.25L237.6,75.715a84.032,84.032,0,0,0-1.738-20.31,79.468,79.468,0,0,0-6.425-18.658A76.227,76.227,0,0,0,218.691,20.5a74.937,74.937,0,0,0-14.728-13.07,2.942,2.942,0,0,1-.868-.909,3.209,3.209,0,0,1-.428-1.171,3.509,3.509,0,0,1,.035-1.283,3.645,3.645,0,0,1,.521-1.244,3.485,3.485,0,0,1,.93-.956,3.344,3.344,0,0,1,1.149-.509,3.183,3.183,0,0,1,1.224-.043,3.019,3.019,0,0,1,1.154.441A80.844,80.844,0,0,1,223.566,15.87a82.263,82.263,0,0,1,11.587,17.542,85.835,85.835,0,0,1,6.919,20.136,90.844,90.844,0,0,1,1.87,21.916L229.608,485.919a3.7,3.7,0,0,1-.295,1.316,3.953,3.953,0,0,1-.718,1.117,3.806,3.806,0,0,1-1.033.8A3.343,3.343,0,0,1,226.32,489.531Z" fill="#2d02a7"/>
      </g>
      <g id="Group_104" data-name="Group 104">
        <g id="Group_101" data-name="Group 101">
          <path id="Path_23" data-name="Path 23" d="M532.463,2809.405H975.14c118.117,0,214.194-96.1,214.194-214.217S1093.257,2380.97,975.14,2380.97a72.34,72.34,0,1,0,0,144.68,69.538,69.538,0,0,1,0,139.076H532.463a72.339,72.339,0,1,0,0,144.679Z" fill="#25beef"/>
        </g>
        <g id="Group_102" data-name="Group 102">
          <path id="Path_24" data-name="Path 24" d="M902.8,2453.31a72.066,72.066,0,0,0,72.139,72.141,69.743,69.743,0,0,1,69.721,69.721c0-39.9,32.243-72.542,72.141-72.542a72.755,72.755,0,0,1,72.542,72.542c0-118.083-96.321-214.4-214.4-214.4C935.041,2380.768,902.8,2413.412,902.8,2453.31Z" fill="#fff"/>
          <path id="Path_25" data-name="Path 25" d="M1189.344,2598.46a3.277,3.277,0,0,1-3.279-3.279,69.342,69.342,0,0,0-69.264-69.264c-37.975,0-68.867,31.071-68.867,69.264a3.279,3.279,0,1,1-6.558,0,66.521,66.521,0,0,0-66.433-66.446,75.516,75.516,0,0,1-75.425-75.438c0-41.8,33.838-75.8,75.425-75.8,120.034,0,217.679,97.645,217.679,217.679A3.277,3.277,0,0,1,1189.344,2598.46Zm-214.4-214.4c-37.975,0-68.867,31.071-68.867,69.238a68.946,68.946,0,0,0,68.867,68.88,73.115,73.115,0,0,1,69.635,51.1,75.527,75.527,0,0,1,138.17-15.472C1165.047,2459.163,1078.6,2384.059,974.943,2384.059Z" fill="#2d02a7"/>
        </g>
        <g id="Group_103" data-name="Group 103">
          <path id="Path_26" data-name="Path 26" d="M975.135,2812.681H532.463a75.616,75.616,0,0,1,0-151.233H975.135a66.254,66.254,0,0,0,0-132.508,75.63,75.63,0,0,1,0-151.259c119.918,0,217.475,97.569,217.475,217.5S1095.053,2812.681,975.135,2812.681ZM532.463,2668a69.059,69.059,0,0,0,0,138.118H975.135c116.294,0,210.917-94.623,210.917-210.942s-94.623-210.943-210.917-210.943a69.072,69.072,0,0,0,0,138.144,72.811,72.811,0,0,1,0,145.623Z" fill="#2d02a7"/>
        </g>
      </g>
      <g id="Group_107" data-name="Group 107">
        <path id="Path_29" data-name="Path 29" d="M1657.8,1585.005c-40.859-15.609-107.1-15.609-147.964,0a76.6,76.6,0,0,1,147.964,0Z" fill="#25beef"/>
        <path id="Path_30" data-name="Path 30" d="M1657.8,1588.279a3.315,3.315,0,0,1-1.165-.217c-40.139-15.318-105.471-15.318-145.636,0a3.268,3.268,0,0,1-3.369-.628,3.323,3.323,0,0,1-.96-3.3,79.882,79.882,0,0,1,154.294,0,3.276,3.276,0,0,1-3.164,4.149Zm-73.977-56.751a73.75,73.75,0,0,0-68.854,48.183c39.55-12.859,98.145-12.859,137.7,0A73.732,73.732,0,0,0,1583.82,1531.528Z" fill="#2d02a7"/>
      </g>
      <g id="Group_108" data-name="Group 108" transform="translate(0 -49)">
        <path id="Path_31" data-name="Path 31" d="M1367.963,1585.005c-40.859-15.609-107.1-15.609-147.964,0a76.6,76.6,0,0,1,147.964,0Z" fill="#25beef"/>
        <path id="Path_32" data-name="Path 32" d="M1367.959,1588.279a3.315,3.315,0,0,1-1.165-.217c-40.165-15.318-105.458-15.318-145.623,0a3.283,3.283,0,0,1-3.369-.628,3.32,3.32,0,0,1-.96-3.3,79.873,79.873,0,0,1,154.281,0,3.276,3.276,0,0,1-3.164,4.149Zm-73.977-18.212c24.54,0,49.067,3.214,68.842,9.644a73.27,73.27,0,0,0-137.683,0C1244.916,1573.281,1269.443,1570.067,1293.982,1570.067Z" fill="#2d02a7"/>
      </g>
      <path id="Path_33" data-name="Path 33" d="M424.543,172.866a3.114,3.114,0,0,0-.474-.976,2.331,2.331,0,0,0-.7-.638,1.837,1.837,0,0,0-.831-.252,1.8,1.8,0,0,0-.873.18,129.85,129.85,0,0,1-41.332,12.4,135.028,135.028,0,0,1-44.234-1.92,158.635,158.635,0,0,1-45.109-17.1,198.253,198.253,0,0,1-43.357-33.2l2.54-18.074a36.191,36.191,0,0,0,9.74-2.965A45.065,45.065,0,0,0,276.48,97.171a36.425,36.425,0,0,0,5.161-8.988,51.2,51.2,0,0,0-12.3-14.081,44.571,44.571,0,0,0-15.471-7.911,39.328,39.328,0,0,0-16.808-1.015A38.153,38.153,0,0,0,220.9,71.84,47.118,47.118,0,0,0,223.5,83.3a62.888,62.888,0,0,0,5.3,11.192,63.726,63.726,0,0,0,7.249,9.865,48.169,48.169,0,0,0,8.457,7.532l-2.522,17.947a179.876,179.876,0,0,1-53.474,12.372,202.34,202.34,0,0,1-58-4.151,238.9,238.9,0,0,1-59.986-21.887A282.682,282.682,0,0,1,12.013,75.255a4.578,4.578,0,0,0-1.378-.829,4.09,4.09,0,0,0-1.478-.271,3.529,3.529,0,0,0-1.407.3,3.243,3.243,0,0,0-1.165.872,3.47,3.47,0,0,0-.7,1.3,3.8,3.8,0,0,0-.124,1.465,4.178,4.178,0,0,0,.436,1.454,4.395,4.395,0,0,0,.977,1.269,303.6,303.6,0,0,0,30.006,23.65,279.59,279.59,0,0,0,30.878,18.515,256.46,256.46,0,0,0,31.2,13.537,234.947,234.947,0,0,0,31.043,8.736s.9.187,2.484.483,3.828.7,6.525,1.136,5.817.9,9.164,1.317,6.881.787,10.425,1.037a169.024,169.024,0,0,0,28.732-.629,243.178,243.178,0,0,0,25.817-4.107c7.721-1.641,14.48-3.43,19.729-4.95,5.215-1.51,8.959-2.762,10.687-3.348,5.471,5.14,11.586,10.489,18.288,15.737a223.321,223.321,0,0,0,21.546,14.981,180.039,180.039,0,0,0,24.277,12.44,146.177,146.177,0,0,0,26.509,8.279,143.5,143.5,0,0,0,23.233,2.894,135.941,135.941,0,0,0,22.695-.948,133.312,133.312,0,0,0,21.913-4.67,136.057,136.057,0,0,0,20.919-8.29,2.264,2.264,0,0,0,.748-.617,3.055,3.055,0,0,0,.493-.909,3.68,3.68,0,0,0,.2-1.083A3.736,3.736,0,0,0,424.543,172.866Z" transform="translate(1196.198 1564.917)" fill="#2d02a7"/>
      <path id="Path_34" data-name="Path 34" transform="translate(1469.901 1709.752)" fill="#2d02a7"/>
      <path id="Path_67" data-name="Path 67" d="M1386.51,1719.778s10.874,65.246,71.227,78.567,89.442-44.857,89.442-44.857" transform="translate(-32.04 -9.08)" fill="none" stroke="#2d02a7" stroke-width="7"/>
    </g>
    <g id="Group_110" data-name="Group 110" transform="translate(-0.822 -3.168)">
      <path id="Path_35" data-name="Path 35" d="M3727.594,2816.929H354.489c-1.508,0-2.738-2.412-2.738-5.414s1.23-5.416,2.738-5.416H3727.594c1.516,0,2.727,2.412,2.727,5.416S3729.11,2816.929,3727.594,2816.929Z" transform="translate(107.132 -3.106)" fill="#2d02a7"/>
    </g>
    <g id="Group_133" data-name="Group 133" transform="translate(536.523 2076.558)">
      <path id="Path_36" data-name="Path 36" d="M253.182,0H400.5a3.265,3.265,0,0,1,2.321.957,3.3,3.3,0,0,1,.7,3.6A3.271,3.271,0,0,1,401.776,6.3a3.291,3.291,0,0,1-1.28.257H253.182A246.69,246.69,0,0,0,157.275,480.4a245.28,245.28,0,0,0,95.907,19.411H542.559a3.281,3.281,0,0,1,2.321,5.6,3.255,3.255,0,0,1-1.042.7,3.289,3.289,0,0,1-1.279.257H253.182A253.249,253.249,0,0,1,154.728,19.927,251.791,251.791,0,0,1,253.182,0Z" fill="#2d02a7"/>
      <g id="Group_111" data-name="Group 111" transform="translate(539.28 454.904)">
        <path id="Path_37" data-name="Path 37" d="M39.986,96.365a33.978,33.978,0,0,0,15.537-3.793,40.635,40.635,0,0,0,12.7-10.337A49.9,49.9,0,0,0,76.8,66.917a57.358,57.358,0,0,0,0-37.47A49.905,49.905,0,0,0,68.227,14.13a40.642,40.642,0,0,0-12.7-10.337,33.75,33.75,0,0,0-31.089,0A40.647,40.647,0,0,0,11.722,14.13,49.886,49.886,0,0,0,3.146,29.447a57.35,57.35,0,0,0,0,37.47,49.884,49.884,0,0,0,8.576,15.318A40.64,40.64,0,0,0,24.434,92.572,34.032,34.032,0,0,0,39.986,96.365Zm0-89.808A27.669,27.669,0,0,1,52.975,9.833a34.207,34.207,0,0,1,10.619,8.929A43.522,43.522,0,0,1,70.759,32a51.141,51.141,0,0,1,0,32.373A43.522,43.522,0,0,1,63.593,77.6a34.207,34.207,0,0,1-10.619,8.929,27.414,27.414,0,0,1-25.993,0A34.209,34.209,0,0,1,16.355,77.6,43.5,43.5,0,0,1,9.187,64.369,51.137,51.137,0,0,1,9.187,32a43.5,43.5,0,0,1,7.168-13.233A34.21,34.21,0,0,1,26.982,9.833,27.721,27.721,0,0,1,39.986,6.557Z" fill="#2d02a7"/>
      </g>
      <g id="Group_112" data-name="Group 112" transform="translate(559.267 478.615)">
        <path id="Ellipse_75" data-name="Ellipse 75" d="M20,0a16.846,16.846,0,0,0-7.784,1.923A20.349,20.349,0,0,0,5.857,7.168a25.4,25.4,0,0,0-4.286,7.779A29.656,29.656,0,0,0,1.572,34a25.4,25.4,0,0,0,4.286,7.779,20.349,20.349,0,0,0,6.357,5.245,16.715,16.715,0,0,0,15.568,0,20.349,20.349,0,0,0,6.357-5.245A25.4,25.4,0,0,0,38.425,34a29.656,29.656,0,0,0,0-19.052,25.4,25.4,0,0,0-4.286-7.779,20.349,20.349,0,0,0-6.357-5.245A16.846,16.846,0,0,0,20,0Z" transform="translate(0 0)" fill="#2d02a7"/>
      </g>
    </g>
    <g id="Group_123" data-name="Group 123" transform="translate(-1930.005 0)">
      <g id="Group_119" data-name="Group 119">
        <path id="Path_48" data-name="Path 48" d="M3516.077,1423.944a20.287,20.287,0,1,1,20.262-20.288A20.309,20.309,0,0,1,3516.077,1423.944Zm0-34.017a13.73,13.73,0,1,0,13.7,13.729A13.739,13.739,0,0,0,3516.077,1389.927Z" fill="#0871f7"/>
      </g>
      <g id="Group_120" data-name="Group 120">
        <path id="Path_49" data-name="Path 49" d="M3516.077,1182.737a20.288,20.288,0,1,1,20.262-20.288A20.309,20.309,0,0,1,3516.077,1182.737Zm0-34.017a13.73,13.73,0,1,0,13.7,13.729A13.739,13.739,0,0,0,3516.077,1148.72Z" fill="#0871f7"/>
      </g>
      <g id="Group_121" data-name="Group 121">
        <path id="Path_50" data-name="Path 50" d="M3516.077,1389.927a3.277,3.277,0,0,1-3.279-3.279v-207.19a3.279,3.279,0,1,1,6.558,0v207.19A3.277,3.277,0,0,1,3516.077,1389.927Z" fill="#0871f7"/>
      </g>
      <g id="Group_122" data-name="Group 122">
        <rect id="Rectangle_18" data-name="Rectangle 18" width="57.12" height="155.962" rx="28.56" transform="translate(3487.506 1205.071)" fill="#fff"/>
        <path id="Path_51" data-name="Path 51" d="M3516.077,1364.311a31.88,31.88,0,0,1-31.84-31.84v-98.837a31.84,31.84,0,0,1,63.68,0v98.837A31.88,31.88,0,0,1,3516.077,1364.311Zm0-155.959a25.318,25.318,0,0,0-25.282,25.282v98.837a25.282,25.282,0,1,0,50.564,0v-98.837A25.318,25.318,0,0,0,3516.077,1208.352Z" fill="#0871f7"/>
      </g>
    </g>
    <g id="Group_124" data-name="Group 124" transform="translate(-1930.005 0)">
      <path id="Path_52" data-name="Path 52" d="M3516.077,1547.41a3.277,3.277,0,0,1-3.279-3.279v-87.848a3.279,3.279,0,0,1,6.558,0v87.848A3.277,3.277,0,0,1,3516.077,1547.41Z" fill="#0871f7"/>
    </g>
    <g id="Group_125" data-name="Group 125" transform="translate(-1930.005 0)">
      <path id="Path_53" data-name="Path 53" d="M3516.077,1115.33a3.277,3.277,0,0,1-3.279-3.279V997.973a3.279,3.279,0,1,1,6.558,0v114.078A3.277,3.277,0,0,1,3516.077,1115.33Z" fill="#0871f7"/>
      <path id="Path_66" data-name="Path 66" d="M3689.006,1037.574a20.287,20.287,0,1,1,20.288-20.287A20.308,20.308,0,0,1,3689.006,1037.574Zm0-34.017a13.73,13.73,0,1,0,13.73,13.73A13.74,13.74,0,0,0,3689.006,1003.557Z" transform="translate(-172.929 -38.88)" fill="#0871f7"/>
    </g>
    <g id="Group_128" data-name="Group 128" transform="translate(-1930.005 0)">
      <g id="Group_126" data-name="Group 126">
        <path id="Path_54" data-name="Path 54" d="M3484.544,926.1a3.289,3.289,0,0,1-2.331-.96,3.326,3.326,0,0,1,0-4.637l63.066-63.065a3.288,3.288,0,0,1,4.662,4.637l-63.066,63.065A3.286,3.286,0,0,1,3484.544,926.1Z" fill="#fff"/>
      </g>
      <g id="Group_127" data-name="Group 127">
        <path id="Path_55" data-name="Path 55" d="M3547.61,926.1a3.285,3.285,0,0,1-2.331-.96l-63.066-63.065a3.288,3.288,0,0,1,4.662-4.637l63.066,63.065a3.326,3.326,0,0,1,0,4.637A3.288,3.288,0,0,1,3547.61,926.1Z" fill="#fff"/>
      </g>
    </g>
    <g id="Group_129" data-name="Group 129" transform="translate(-1930.005 0)">
      <path id="Path_56" data-name="Path 56" d="M3675.11,1026.537l-82.674,82.684a3.265,3.265,0,0,0-.947,2.318v432.592a3.278,3.278,0,1,0,6.557,0V1112.9l81.71-81.709A16.559,16.559,0,0,1,3675.11,1026.537Z" fill="#0871f7"/>
      <path id="Path_57" data-name="Path 57" d="M3689.006,1037.574a20.287,20.287,0,1,1,20.288-20.287A20.308,20.308,0,0,1,3689.006,1037.574Zm0-34.017a13.73,13.73,0,1,0,13.73,13.73A13.74,13.74,0,0,0,3689.006,1003.557Z" fill="#0871f7"/>
    </g>
    <g id="Group_130" data-name="Group 130" transform="translate(-1930.005 0)">
      <path id="Path_58" data-name="Path 58" d="M3701.34,1183.921l-30.213,30.22a3.263,3.263,0,0,0-.948,2.318v327.672a3.279,3.279,0,0,0,6.558,0V1217.817l29.249-29.25A16.572,16.572,0,0,1,3701.34,1183.921Z" fill="#0871f7"/>
      <path id="Path_59" data-name="Path 59" d="M3715.236,1194.955a20.287,20.287,0,1,1,20.288-20.287A20.309,20.309,0,0,1,3715.236,1194.955Zm0-34.017a13.73,13.73,0,1,0,13.73,13.73A13.739,13.739,0,0,0,3715.236,1160.938Z" fill="#0871f7"/>
    </g>
    <g id="Group_131" data-name="Group 131" transform="translate(-1930.005 0)">
      <path id="Path_60" data-name="Path 60" d="M3439.718,1109.221l-82.693-82.684a16.627,16.627,0,0,1-4.649,4.65l81.732,81.709v431.235a3.279,3.279,0,1,0,6.557,0V1111.539A3.265,3.265,0,0,0,3439.718,1109.221Z" fill="#0871f7"/>
      <path id="Path_61" data-name="Path 61" d="M3343.122,1037.574a20.287,20.287,0,1,1,20.287-20.287A20.308,20.308,0,0,1,3343.122,1037.574Zm0-34.017a13.73,13.73,0,1,0,13.73,13.73A13.739,13.739,0,0,0,3343.122,1003.557Z" fill="#0871f7"/>
    </g>
    <g id="Group_132" data-name="Group 132" transform="translate(-1930.005 0)">
      <path id="Path_62" data-name="Path 62" d="M3361,1214.141l-30.22-30.207a16.63,16.63,0,0,1-4.624,4.624l29.259,29.259v326.314a3.279,3.279,0,0,0,6.558,0V1216.459A3.185,3.185,0,0,0,3361,1214.141Z" fill="#0871f7"/>
      <path id="Path_63" data-name="Path 63" d="M3316.892,1194.955a20.287,20.287,0,1,1,20.287-20.287A20.308,20.308,0,0,1,3316.892,1194.955Zm0-34.017a13.73,13.73,0,1,0,13.73,13.73A13.739,13.739,0,0,0,3316.892,1160.938Z" fill="#0871f7"/>
    </g>
    <path id="Path_65" data-name="Path 65" d="M917.343,2805.978l748.47,6.532-549.556,155.935Z" transform="translate(1784.877 12.766) rotate(-0.5)" fill="#fff"/>
    <line id="Line_1" data-name="Line 1" x1="1094.5" transform="translate(1758.519 1275.5)" fill="none" stroke="#2d02a7" stroke-linecap="round" stroke-width="6.5"/>
  </g>
</svg>
