<svg xmlns="http://www.w3.org/2000/svg" xmlns:xlink="http://www.w3.org/1999/xlink" width="auto" height="auto" viewBox="0 0 2823.085 2434.125">
  <defs>
    <clipPath id="clip-path">
      <path id="Path_94" data-name="Path 94" d="M987.18,2525.428S-2.9,2265.882,237.007,1454.849C404.2,889.627,814.683,1304.7,945.641,683.165c142.5-676.336,1335.736-391.906,1296.77,294.093s1363,898.521,437.764,1476.689S987.18,2525.428,987.18,2525.428Z" transform="translate(-199.52 -296.933)" fill="none"/>
    </clipPath>
  </defs>
  <g id="Group_67" data-name="Group 67" transform="translate(-184.516 -296.933)">
    <g id="Group_16" data-name="Group 16" transform="translate(210.486 296.933)">
      <path id="Path_85" data-name="Path 85" d="M2242.411,977.258c38.967-686-1154.266-970.429-1296.77-294.093C814.683,1304.7,404.2,889.627,237.007,1454.849-2.9,2265.882,987.18,2525.428,987.18,2525.428s53.647,35.4,149.644,76.8H2394.072c93.153-38.667,188.752-87.45,286.1-148.283C3605.416,1875.779,2203.446,1663.258,2242.411,977.258Z" transform="translate(-199.52 -296.933)" fill="#ececf5"/>
      <g id="Group_14" data-name="Group 14" transform="translate(0 0)">
        <g id="Group_13" data-name="Group 13" clip-path="url(#clip-path)">
          <g id="Group_12" data-name="Group 12" transform="translate(-383.539 -285.497)">
            <g id="Group_4" data-name="Group 4" transform="translate(0 700.605)">
              <path id="Path_86" data-name="Path 86" d="M481.329,1542.077q-17.012,0-34.146-1.137c-133.962-8.928-256.428-69.49-344.842-170.526S-29.849,1139.955-20.921,1005.993,48.565,749.565,149.6,661.151,380.055,528.967,514.022,537.89s256.43,69.486,344.844,170.524,132.188,230.459,123.261,364.421l-10.363-.691,10.363.691C973.2,1206.8,912.639,1329.263,811.6,1417.677,719.181,1498.551,603,1542.077,481.329,1542.077Zm-1.421-984.555c-116.652,0-228.017,41.722-316.625,119.261C66.42,761.543,8.361,878.948-.2,1007.374s33.409,252.5,118.169,349.362,202.165,154.92,330.592,163.477q16.414,1.093,32.735,1.092c116.652,0,228.017-41.722,316.625-119.261,96.863-84.758,154.921-202.165,163.477-330.592s-33.407-252.5-118.167-349.36S641.067,567.173,512.643,558.614Q496.228,557.521,479.907,557.522Z" transform="translate(22.06 -536.751)" fill="#fff"/>
            </g>
            <g id="Group_5" data-name="Group 5" transform="translate(161.662 800.463)">
              <path id="Path_87" data-name="Path 87" d="M593.4,1637.068q-17.645,0-35.413-1.18c-138.931-9.259-265.943-72.065-357.636-176.852S63.26,1220.026,72.517,1081.095s72.065-265.943,176.852-357.638S488.382,586.364,627.31,595.623s265.943,72.065,357.637,176.851,137.093,239.008,127.834,377.941-72.066,265.945-176.852,357.637C840.079,1591.927,719.588,1637.068,593.4,1637.068ZM591.927,615.214c-121.167,0-236.841,43.337-328.88,123.876-100.61,88.04-160.916,209.989-169.8,343.387s34.7,262.27,122.74,362.882,209.991,160.916,343.387,169.8,262.272-34.7,362.882-122.74,160.916-209.991,169.806-343.389l10.363.691-10.363-.691c8.888-133.4-34.7-262.27-122.742-362.88S759.325,625.236,625.929,616.347Q608.878,615.213,591.927,615.214Z" transform="translate(-71.336 -594.442)" fill="#fff"/>
            </g>
            <g id="Group_6" data-name="Group 6" transform="translate(58.258 739.71)">
              <path id="Path_88" data-name="Path 88" d="M420.3,1375.565q-13.813,0-27.723-.924c-108.765-7.249-208.194-56.416-279.978-138.45S5.274,1049.083,12.521,940.32,68.938,732.126,150.97,660.343s187.1-107.314,295.873-100.077,208.194,56.418,279.978,138.45S834.143,885.824,826.9,994.586s-56.418,208.2-138.45,279.978C613.408,1340.227,519.083,1375.565,420.3,1375.565Zm-1.148-795.451c-93.764,0-183.278,33.537-254.5,95.86a387.318,387.318,0,0,0,229.306,677.94q13.192.88,26.312.879c93.764,0,183.277-33.537,254.5-95.86A387.32,387.32,0,0,0,445.461,580.992Q432.266,580.111,419.149,580.114Z" transform="translate(-11.597 -559.343)" fill="#fff"/>
            </g>
            <g id="Group_7" data-name="Group 7" transform="translate(1339.826)">
              <path id="Path_89" data-name="Path 89" d="M1437.38,1500.787q-23.178,0-46.495-1.553A684.535,684.535,0,0,1,1212.518,169.5,684.532,684.532,0,0,1,1660.257,1463.28,678.124,678.124,0,0,1,1437.38,1500.787Zm-1.966-1348.02A663.382,663.382,0,0,0,937,1253.38a663.758,663.758,0,1,0,543.51-1099.108Q1457.9,152.767,1435.413,152.767Z" transform="translate(-751.991 -131.994)" fill="#fff"/>
            </g>
            <g id="Group_8" data-name="Group 8" transform="translate(1887.122 196.538)">
              <path id="Path_90" data-name="Path 90" d="M1502.072,1112.072q-14.665,0-29.435-.981C1357.171,1103.4,1251.61,1051.2,1175.4,964.109S1061.464,765.468,1069.159,650s59.893-221.027,146.983-297.235S1414.787,238.83,1530.25,246.52s221.029,59.894,297.237,146.982,113.938,198.643,106.244,314.11-59.9,221.029-146.984,297.235C1707.085,1074.556,1606.946,1112.072,1502.072,1112.072Zm-1.224-845.761c-99.855,0-195.179,35.713-271.029,102.085-82.913,72.554-132.61,173.053-139.935,282.984s28.6,216.137,101.15,299.049,173.053,132.612,282.984,139.937q14.052.937,28.022.935c99.855,0,195.179-35.714,271.029-102.085,82.913-72.553,132.61-173.053,139.935-282.986s-28.6-216.136-101.15-299.049S1638.8,274.572,1528.871,267.246Q1514.818,266.309,1500.848,266.312Z" transform="translate(-1068.177 -245.539)" fill="#fff"/>
            </g>
            <g id="Group_9" data-name="Group 9" transform="translate(1651.363 50.504)">
              <path id="Path_91" data-name="Path 91" d="M1506.163,1307.893q-19.406,0-38.95-1.3c-152.8-10.183-292.5-79.261-393.343-194.51s-150.779-262.871-140.6-415.674,79.261-292.494,194.51-393.343,262.876-150.778,415.673-140.6,292.5,79.261,393.343,194.51,150.779,262.871,140.6,415.674S1998.136,1065.147,1882.887,1166C1777.467,1258.246,1644.948,1307.893,1506.163,1307.893Zm-1.627-1125.949c-133.766,0-261.467,47.845-363.076,136.757C1030.388,415.9,963.811,550.525,954,697.793s38.309,289.541,135.5,400.615,231.826,177.649,379.094,187.461,289.541-38.309,400.614-135.5S2046.856,918.54,2056.67,771.272l10.363.691-10.363-.691c9.813-147.267-38.309-289.541-135.5-400.615S1689.342,193.009,1542.074,183.2Q1523.253,181.942,1504.536,181.943Z" transform="translate(-931.974 -161.172)" fill="#fff"/>
            </g>
            <g id="Group_10" data-name="Group 10" transform="translate(2081.942 1571.141)">
              <path id="Path_92" data-name="Path 92" d="M1567.712,1812.531q-13.078,0-26.249-.876A386.406,386.406,0,1,1,1952.7,1451.8l-10.363-.691,10.363.691a383.868,383.868,0,0,1-131.092,265.1C1750.563,1779.07,1661.248,1812.531,1567.712,1812.531Zm-1.085-752.078c-88.514,0-173.017,31.657-240.251,90.491a365.632,365.632,0,0,0,216.468,639.985c8.225.548,16.43.818,24.559.818,190.636.012,351.719-148.394,364.576-341.332h0a365.633,365.633,0,0,0-340.513-389.135Q1579.011,1060.45,1566.627,1060.453Z" transform="translate(-1180.729 -1039.681)" fill="#fff"/>
            </g>
            <g id="Group_11" data-name="Group 11" transform="translate(1796.213 1368.039)">
              <path id="Path_93" data-name="Path 93" d="M1608.522,2106.364q-20.036,0-40.215-1.342c-157.774-10.514-302.011-81.838-406.138-200.834s-155.685-271.422-145.171-429.2,81.838-302.009,200.834-406.138,271.413-155.68,429.2-145.169,302.009,81.836,406.138,200.834,155.683,271.422,145.17,429.2S2116.5,1855.724,1997.5,1959.852C1888.65,2055.1,1751.822,2106.364,1608.522,2106.364Zm-1.679-1163.249c-138.282,0-270.293,49.458-375.333,141.372-114.821,100.475-183.643,239.65-193.788,391.887s39.6,299.314,140.077,414.135,239.65,183.644,391.887,193.789q19.457,1.3,38.8,1.295c138.282,0,270.293-49.458,375.331-141.372,114.821-100.475,183.645-239.65,193.79-391.887s-39.6-299.314-140.077-414.137-239.65-183.643-391.887-193.788Q1626.19,943.114,1606.843,943.115Z" transform="translate(-1015.657 -922.345)" fill="#fff"/>
            </g>
          </g>
        </g>
      </g>
    </g>
    <g id="Group_51" data-name="Group 51" transform="translate(184.517 938.192)">
      <g id="Group_20" data-name="Group 20" transform="translate(0 1038.993)">
        <g id="Group_19" data-name="Group 19">
          <path id="Path_96" data-name="Path 96" d="M496.579,1857.287c-2.4,29.514-8.177,59.371-18.912,84.005-.659,1.5-1.317,2.981-2.03,4.431H438.553l-1.425-4.431H349.615c-26.9-39.7-46.42-101.545-44.521-178.931,4.326-175.924-228.067-475.626-58.659-555.993,125.733-59.634,272.67,124.782,231.892,271.956-18.382,66.308-21.837,118.636-18.7,158.674,3.8,48.848,17.38,79.443,25.716,94.952,6.25,11.632,11.815,43.7,12.554,81.79A421.6,421.6,0,0,1,496.579,1857.287Z" transform="translate(-184.517 -1194.863)" fill="#005081" opacity="0.88"/>
          <g id="Group_18" data-name="Group 18" transform="translate(120.576 227.016)">
            <g id="Group_17" data-name="Group 17">
              <path id="Path_97" data-name="Path 97" d="M400.323,1849.861H387.637l-1.425-4.431c-9.311-28.96-19.359-59.108-29.646-90.072-53.146-159.808-108.086-325.077-101.915-423.695a6.094,6.094,0,0,1,6.384-5.643,6.02,6.02,0,0,1,5.645,6.382c-5.908,94.687,49.11,262.092,98.8,411.509.845,2.532,1.689,5.091,2.532,7.623,10,30.12,19.755,59.475,28.908,87.723l1.977,6.173C399.375,1846.906,399.849,1848.41,400.323,1849.861Z" transform="translate(-254.176 -1326.016)" fill="#fff"/>
            </g>
          </g>
          <path id="Path_98" data-name="Path 98" d="M690.1,1600.347c-95.452,93.37-220.6,101.519-252.438,302.738-.237,1.451-.474,2.927-.685,4.431H357.27c0-.028-.026-.028-.026-.054-.9-1.371-1.821-2.847-2.823-4.378-1.187-1.927-2.427-3.983-3.692-6.173a249.732,249.732,0,0,1-31.441-95.347c-4.378-36.266-1.951-79.813,14.638-129.53,10.683-32.018,20.072-55.2,28.591-73.244,33.049-70,52.8-62.192,82.159-191.723,36.926-162.894,60.823-167.22,117.291-156.379C705,1278.2,790.011,1502.626,690.1,1600.347Z" transform="translate(-87.408 -1156.656)" fill="#005081" opacity="0.94"/>
        </g>
        <path id="Path_99" data-name="Path 99" d="M565.743,1319.52c-61.612,74.22-116.684,246.372-165.241,398.269-6.039,18.857-11.975,37.452-17.856,55.6-9.442,29.249-18.727,57.444-27.958,84.005-.5,1.477-1,2.981-1.53,4.431H340.392c0-.028,0-.028.028-.054.5-1.451,1-2.927,1.5-4.378,13.742-39.432,27.641-82.529,42.043-127.552,1.688-5.2,3.349-10.445,5.037-15.72,51.3-160.414,104.342-326.288,167.457-402.33a6.072,6.072,0,0,1,8.494-.765A6,6,0,0,1,565.743,1319.52Z" transform="translate(-70.583 -1110.965)" fill="#fff"/>
        <path id="Path_100" data-name="Path 100" d="M428.1,1626.094c-.237,1.451-.474,2.927-.685,4.431H331.882l-1.425-4.431Z" transform="translate(-77.845 -879.665)" fill="#fff"/>
      </g>
      <path id="Path_101" data-name="Path 101" d="M1294.852,649.286,335.434,2212.322c-46.893,76.395,8.076,174.632,97.713,174.632H2351.983c89.638,0,144.605-98.237,97.714-174.632L1490.279,649.286C1445.531,576.386,1339.6,576.386,1294.852,649.286Z" transform="translate(-86.721 -594.611)" fill="#25d1ef"/>
      <g id="Group_21" data-name="Group 21" transform="translate(1155.22 389.346)">
        <circle id="Ellipse_11" data-name="Ellipse 11" cx="127.747" cy="127.747" r="127.747" transform="translate(14.317 1024.995)" fill="#fff"/>
        <path id="Path_102" data-name="Path 102" d="M894.866,1728.908h209.241L1160.7,918.057s-149.364-224.044-308.78,3.623Z" transform="translate(-851.916 -819.546)" fill="#fff"/>
      </g>
      <g id="Group_25" data-name="Group 25" transform="translate(2193.087 1364.067)">
        <g id="Group_24" data-name="Group 24">
          <path id="Path_103" data-name="Path 103" d="M1629.729,1760.96c-1.371,16.856-4.67,33.905-10.8,47.974-.378.858-.755,1.7-1.16,2.531h-21.178l-.814-2.531H1545.8c-15.364-22.668-26.511-57.99-25.426-102.184,2.47-100.466-130.245-271.621-33.5-317.514,71.8-34.056,155.714,71.259,132.428,155.307-10.5,37.867-12.471,67.75-10.678,90.616,2.169,27.9,9.925,45.368,14.685,54.225,3.569,6.642,6.747,24.958,7.17,46.709A240.317,240.317,0,0,1,1629.729,1760.96Z" transform="translate(-1451.517 -1382.666)" fill="#005081" opacity="0.88"/>
          <g id="Group_23" data-name="Group 23" transform="translate(68.859 129.643)">
            <g id="Group_22" data-name="Group 22">
              <path id="Path_104" data-name="Path 104" d="M1574.759,1756.72h-7.244l-.814-2.531c-5.317-16.539-11.055-33.755-16.93-51.438-30.352-91.263-61.727-185.644-58.2-241.963a3.479,3.479,0,0,1,3.644-3.223,3.44,3.44,0,0,1,3.224,3.646c-3.375,54.074,28.046,149.675,56.423,235,.483,1.447.964,2.908,1.445,4.353,5.709,17.2,11.282,33.966,16.51,50.1l1.128,3.524C1574.217,1755.032,1574.489,1755.891,1574.759,1756.72Z" transform="translate(-1491.299 -1457.564)" fill="#fff"/>
            </g>
          </g>
          <path id="Path_105" data-name="Path 105" d="M1740.246,1614.229c-54.512,53.321-125.982,57.976-144.164,172.887-.135.829-.27,1.672-.391,2.531h-45.518c0-.016-.016-.016-.016-.03-.513-.784-1.039-1.627-1.611-2.5-.677-1.1-1.386-2.274-2.108-3.524a142.626,142.626,0,0,1-17.955-54.452c-2.5-20.711-1.115-45.579,8.36-73.971a377,377,0,0,1,16.328-41.828c18.872-39.976,30.154-35.517,46.918-109.488,21.088-93.027,34.734-95.5,66.982-89.306C1748.755,1430.257,1797.3,1558.423,1740.246,1614.229Z" transform="translate(-1396.06 -1360.847)" fill="#005081"/>
        </g>
        <path id="Path_106" data-name="Path 106" d="M1669.228,1453.855c-35.186,42.385-66.637,140.7-94.367,227.442-3.45,10.77-6.837,21.389-10.2,31.75-5.392,16.705-10.693,32.806-15.966,47.974-.285.843-.573,1.7-.874,2.531h-7.289c0-.015,0-.015.014-.03.287-.829.573-1.672.859-2.5,7.848-22.518,15.786-47.13,24.01-72.841.964-2.969,1.913-5.965,2.877-8.978,29.3-91.609,59.587-186.336,95.632-229.761a3.466,3.466,0,0,1,4.85-.436A3.428,3.428,0,0,1,1669.228,1453.855Z" transform="translate(-1386.452 -1334.754)" fill="#fff"/>
        <path id="Path_107" data-name="Path 107" d="M1590.621,1628.932c-.135.829-.27,1.672-.391,2.531h-54.555l-.814-2.531Z" transform="translate(-1390.599 -1202.663)" fill="#fff"/>
      </g>
      <g id="Group_46" data-name="Group 46" transform="translate(1626.563 232.935)">
        <path id="Path_108" data-name="Path 108" d="M1150.177,799.581s2.828,258.879,74.71,258.014c81.059-.976-11.786-269.092-11.786-269.092S1175.85,773.859,1150.177,799.581Z" transform="translate(-1105.251 -688.859)" fill="#005081"/>
        <path id="Path_109" data-name="Path 109" d="M1435.5,964.986s-236.216-115.61-261.839-48.578c-34.8,91.054,237.975,126.164,237.975,126.164C1454.6,1043.769,1465.9,988,1435.5,964.986Z" transform="translate(-1090.327 -607.616)" fill="#005081"/>
        <path id="Path_110" data-name="Path 110" d="M1227.236,1267.5s3.6-285.278,82.262-325.887c45.1-23.281,138.431-16.96,186.028,15.206,48.037,32.462,14.11,310.681,14.11,310.681Z" transform="translate(-1048.927 -584.124)" fill="#004570"/>
        <path id="Path_111" data-name="Path 111" d="M1221.938,838.42s8.507-13.567,8.127-26.642-2.266-21.829,4.983-35.328-8.849-19.1-14.607-7.107-12.121,32.318-24.328,20.588-8.8-54.915-33.173-43.32c0,0-3.294-19.634-11.793-17.221s-5.629,20.228-5.629,20.228-21.858-9.541-6.417,34.39c0,0-11.251,1.179-9.382,10.076,2.989,14.234,22.05,40.637,42.588,56.463C1205.685,876.265,1221.938,838.42,1221.938,838.42Z" transform="translate(-1120.357 -729.183)" fill="#fb8a60"/>
        <g id="Group_26" data-name="Group 26" transform="translate(41.703 17.345)">
          <path id="Path_112" data-name="Path 112" d="M1166.471,789.268c-19.042-37.615-18.185-49.574-18.138-50.064l1.724.156c-.01.118-.751,12.165,17.96,49.127Z" transform="translate(-1148.315 -739.204)" fill="#e56542"/>
        </g>
        <g id="Group_27" data-name="Group 27" transform="translate(24.324 20.212)">
          <path id="Path_113" data-name="Path 113" d="M1158.693,792.712c-11.779-18.978-20.333-51.088-20.418-51.41l1.674-.441c.085.32,8.573,32.183,20.216,50.939Z" transform="translate(-1138.275 -740.86)" fill="#e56542"/>
        </g>
        <g id="Group_28" data-name="Group 28" transform="translate(17.995 54.39)">
          <path id="Path_114" data-name="Path 114" d="M1150.407,787.721c-7.173-11.318-15.7-26.1-15.79-26.251l1.5-.864c.085.147,8.6,14.9,15.751,26.189Z" transform="translate(-1134.618 -760.606)" fill="#e56542"/>
        </g>
        <path id="Path_115" data-name="Path 115" d="M1518.358,1569.448l-79.323,80.14a15.324,15.324,0,0,0-1.812,19.348h0a15.322,15.322,0,0,0,21.271,4.133l130.339-87.914-31.628-41.238Z" transform="translate(-897.357 -133.67)" fill="#1c5276"/>
        <path id="Rectangle_20" data-name="Rectangle 20" d="M0,0H46.481a0,0,0,0,1,0,0V47.371A13.427,13.427,0,0,1,33.055,60.8H13.427A13.427,13.427,0,0,1,0,47.371V0A0,0,0,0,1,0,0Z" transform="matrix(0.829, -0.559, 0.559, 0.829, 596.844, 1399.641)" fill="#fb855f"/>
        <path id="Path_116" data-name="Path 116" d="M1321.669,1599.938l-110.575,22.081a15.322,15.322,0,0,0-12.322,15.026h0a15.323,15.323,0,0,0,15.324,15.322h157.217l-3.161-51.873Z" transform="translate(-1069.732 -92.725)" fill="#1c5276"/>
        <path id="Rectangle_21" data-name="Rectangle 21" d="M0,0H46.481a0,0,0,0,1,0,0V47.371A13.427,13.427,0,0,1,33.055,60.8H13.427A13.427,13.427,0,0,1,0,47.371V0A0,0,0,0,1,0,0Z" transform="translate(250.263 1470.399)" fill="#fb855f"/>
        <path id="Path_117" data-name="Path 117" d="M1300,1584.338h0a64.2,64.2,0,0,1-64.133-60.6c-7.96-144.018-11.462-291.547-8.087-399.756h140.56c-4.442,123.26-5.534,266.686-4.113,395.4A64.228,64.228,0,0,1,1300,1584.338Z" transform="translate(-1049.467 -440.611)" fill="#007489"/>
        <path id="Path_118" data-name="Path 118" d="M1295.952,1318.406h0a63.983,63.983,0,0,0-63.882,67.794c7.42,124.125,18,305.536,23.511,385.121h108.766c-4.317-90.675-3.009-276.569-4.405-389.73A63.979,63.979,0,0,0,1295.952,1318.406Z" transform="translate(-1045.478 -298.504)" fill="#007489"/>
        <path id="Path_119" data-name="Path 119" d="M1381.941,1584.338h0a64.2,64.2,0,0,1-64.131-60.6c-7.962-144.018-11.462-291.547-8.087-399.756h140.56c-4.442,123.26-5.534,266.686-4.113,395.4A64.228,64.228,0,0,1,1381.941,1584.338Z" transform="translate(-989.571 -440.611)" fill="#007489"/>
        <path id="Path_120" data-name="Path 120" d="M1342.02,1326.827h0a63.984,63.984,0,0,0-15.051,91.926c75.562,98.755,185.779,243.235,234.849,306.133l90.171-60.821c-54.284-72.758-157.149-227.605-221.585-320.639A63.983,63.983,0,0,0,1342.02,1326.827Z" transform="translate(-985.655 -300.353)" fill="#007489"/>
        <path id="Path_121" data-name="Path 121" d="M1253.557,1035.735s-4.67-15.319-14.794-23.6-17.97-12.6-23.412-26.921-20.228-5.839-14.943,6.373,16.461,30.338-.4,31.868-47.244-29.35-54.462-3.344c0,0-16.985-10.382-20.735-2.382s11.587,17.508,11.587,17.508-21.534,10.254,21.765,27.39c0,0-6.484,9.267,1.461,13.688,12.707,7.073,45.143,9.986,70.554,4.848C1271.482,1072.817,1253.557,1035.735,1253.557,1035.735Z" transform="translate(-1124.222 -547.526)" fill="#fd8b66"/>
        <g id="Group_29" data-name="Group 29" transform="translate(20.7 471.982)">
          <path id="Path_122" data-name="Path 122" d="M1185.879,1022.177c-40.891-10.275-49.359-18.761-49.7-19.118l1.249-1.2-.625.6.621-.6c.083.085,8.694,8.542,48.875,18.639Z" transform="translate(-1136.181 -1001.859)" fill="#e56542"/>
        </g>
        <g id="Group_30" data-name="Group 30" transform="translate(11.794 486.935)">
          <path id="Path_123" data-name="Path 123" d="M1183.246,1030.329c-22.054-3.545-51.911-18.131-52.21-18.279l.765-1.553c.3.145,29.923,14.619,51.719,18.123Z" transform="translate(-1131.036 -1010.498)" fill="#e56542"/>
        </g>
        <g id="Group_31" data-name="Group 31" transform="translate(33.777 514.251)">
          <path id="Path_124" data-name="Path 124" d="M1173.909,1033.26c-13.25-2-30.006-5.25-30.174-5.283l.329-1.7c.168.031,16.89,3.273,30.1,5.269Z" transform="translate(-1143.736 -1026.279)" fill="#e56542"/>
        </g>
        <path id="Path_125" data-name="Path 125" d="M1339.026,1005.244c-29.755,0-43.322-34.757-35.327-42.752a28.168,28.168,0,0,0,5.615-8.7h.023a58.584,58.584,0,0,0,4.04-15.1l.022-.021,55.009-49.067c-2.97,31.24,10.4,53.172,15.249,68.794C1388.486,974.027,1372.866,1005.244,1339.026,1005.244Z" transform="translate(-994.688 -611.921)" fill="#fb855f"/>
        <path id="Path_126" data-name="Path 126" d="M1355.419,915.252c-15.776,30.172-48.5,27.177-49.416,27.241a58.58,58.58,0,0,0,4.04-15.1l.022-.021C1311.551,926.524,1370.2,886.972,1355.419,915.252Z" transform="translate(-991.353 -600.618)" fill="#e56542"/>
        <path id="Path_127" data-name="Path 127" d="M1397.618,859.7s-2.364,28.515-43.825,57.891c-43.471,30.8,6.01-63.859,6.01-63.859Z" transform="translate(-969.489 -638.145)" fill="#8e3332"/>
        <path id="Path_128" data-name="Path 128" d="M1314.585,847.287s-5.87,24.572-13.479,52.153c-10.879,39.424-11.807,71.3,28.353,71.3,67.453,0,62.961-111.927,62.961-111.927Z" transform="translate(-999.633 -642.858)" fill="#fb855f"/>
        <path id="Path_129" data-name="Path 129" d="M1366.095,871.543c10.625,4.346,3.251,31.371-19.894,34.023C1328.352,907.612,1349.732,864.849,1366.095,871.543Z" transform="translate(-966.905 -625.649)" fill="#fb855f"/>
        <g id="Group_32" data-name="Group 32" transform="translate(285.179 471.061)">
          <path id="Path_130" data-name="Path 130" d="M1292.127,1083.492l-3.15-1.435c.259-.571,26.172-57.4,40.062-80.73l2.975,1.771C1318.219,1026.264,1292.387,1082.923,1292.127,1083.492Z" transform="translate(-1288.977 -1001.327)" fill="#50a5a0"/>
        </g>
        <g id="Group_33" data-name="Group 33" transform="translate(132.09 286.538)">
          <path id="Path_131" data-name="Path 131" d="M1203.849,921.909a3.318,3.318,0,0,1-3.083-4.535c4.748-12.058,17.24-21.581,17.768-21.981a3.318,3.318,0,0,1,4,5.295c-.116.087-11.54,8.821-15.6,19.12A3.318,3.318,0,0,1,1203.849,921.909Z" transform="translate(-1200.533 -894.723)" fill="#00426b"/>
        </g>
        <path id="Path_132" data-name="Path 132" d="M1276.764,1263.4l107.621-20.7-33.114-117.97-45.532-2.07Z" transform="translate(-1012.725 -441.574)" fill="#007489"/>
        <g id="Group_34" data-name="Group 34" transform="translate(290.623 684.721)">
          <path id="Path_133" data-name="Path 133" d="M1332.938,1237.943l-40.815-17.085,15.86-96.094,3.416.565-15.415,93.393,38.292,16.029Z" transform="translate(-1292.122 -1124.764)" fill="#003e49"/>
        </g>
        <g id="Group_35" data-name="Group 35" transform="translate(423.736 684.532)">
          <path id="Path_134" data-name="Path 134" d="M1581.442,1821.329l-212.417-298.744,0-.559,2.759-397.371,3.462.024L1372.5,1521.49l211.768,297.832Z" transform="translate(-1369.025 -1124.654)" fill="#003e49"/>
        </g>
        <g id="Group_36" data-name="Group 36" transform="translate(187.802 685.16)">
          <rect id="Rectangle_22" data-name="Rectangle 22" width="3.462" height="785.094" transform="matrix(0.999, -0.042, 0.042, 0.999, 0, 0.146)" fill="#003e49"/>
        </g>
        <path id="Path_135" data-name="Path 135" d="M1440.971,1561.02l27.893,33.092,90.172-60.821-27.92-38.5Z" transform="translate(-892.701 -169.579)" fill="#0088a1"/>
        <path id="Path_136" data-name="Path 136" d="M1242.753,1551.122l110.381,1.84,3.32,48.26H1247.687Z" transform="translate(-1037.584 -128.406)" fill="#0088a1"/>
        <path id="Path_137" data-name="Path 137" d="M1429.784,878.709s-35.082,11.113-79.926.765-57.95-51.741-57.95-51.741,42.773,16.556,80.026,15.868S1433.821,859.319,1429.784,878.709Z" transform="translate(-1001.655 -657.151)" fill="#8e3332"/>
        <circle id="Ellipse_12" data-name="Ellipse 12" cx="4.714" cy="4.714" r="4.714" transform="translate(344.872 249.804)" fill="#8e3332"/>
        <circle id="Ellipse_13" data-name="Ellipse 13" cx="4.714" cy="4.714" r="4.714" transform="translate(311.572 241.705)" fill="#8e3332"/>
        <g id="Group_37" data-name="Group 37" transform="translate(318.323 269.801)">
          <path id="Path_138" data-name="Path 138" d="M1312.539,899.244a4.49,4.49,0,0,1-4.125-2.262c-.637-1.319-.382-3.372,2.425-4.815a6.851,6.851,0,0,0,3.716-6.867l1.714-.246a8.715,8.715,0,0,1-4.639,8.651c-1.442.741-2.062,1.686-1.656,2.525.466.966,2.338,1.819,4.513.839l.711,1.577A6.454,6.454,0,0,1,1312.539,899.244Z" transform="translate(-1308.125 -885.054)" fill="#8e3332"/>
        </g>
        <path id="Path_139" data-name="Path 139" d="M1326.908,915.66l-22.928-2.126s2.929-15.028,13.359-13.9S1326.908,915.66,1326.908,915.66Z" transform="translate(-992.832 -604.643)" fill="#fff"/>
        <g id="Group_38" data-name="Group 38" transform="translate(352.372 234.277)">
          <path id="Path_140" data-name="Path 140" d="M1339.414,876.628a14.484,14.484,0,0,0-11.618-8.641l.177-3.457a17.824,17.824,0,0,1,14.6,10.678Z" transform="translate(-1327.796 -864.531)" fill="#8e3332"/>
        </g>
        <g id="Group_39" data-name="Group 39" transform="translate(310.667 226.389)">
          <path id="Path_141" data-name="Path 141" d="M1319.888,866.4c-6.382-4.53-15.3-2.506-15.386-2.486l-.8-3.368c.424-.1,10.512-2.418,18.188,3.033Z" transform="translate(-1303.702 -859.974)" fill="#8e3332"/>
        </g>
        <g id="Group_40" data-name="Group 40" transform="translate(333.174 236.643)">
          <path id="Path_142" data-name="Path 142" d="M1336.09,904.667a19.385,19.385,0,1,1,19.385-19.383A19.407,19.407,0,0,1,1336.09,904.667Zm0-37.038a17.654,17.654,0,1,0,17.654,17.655A17.675,17.675,0,0,0,1336.09,867.629Z" transform="translate(-1316.705 -865.898)" fill="#8e3332"/>
        </g>
        <g id="Group_41" data-name="Group 41" transform="translate(290.69 227.3)">
          <path id="Path_143" data-name="Path 143" d="M1311.544,899.268a19.384,19.384,0,1,1,19.386-19.385A19.407,19.407,0,0,1,1311.544,899.268Zm0-37.037a17.653,17.653,0,1,0,17.656,17.652A17.672,17.672,0,0,0,1311.544,862.231Z" transform="translate(-1292.161 -860.5)" fill="#8e3332"/>
        </g>
        <g id="Group_42" data-name="Group 42" transform="translate(327.27 249.776)">
          <rect id="Rectangle_23" data-name="Rectangle 23" width="1.731" height="6.696" transform="translate(0 1.665) rotate(-74.059)" fill="#8e3332"/>
        </g>
        <path id="Path_144" data-name="Path 144" d="M1407.342,931.281s14.907,13.93-37.2,71.763c-51.559,57.218-89.851,91.845-94.531,263.655l-5.619,55.419,206.728-4.343,1.672-52.935s27.423-225.465-3.739-297.732C1462.841,939.726,1407.342,931.281,1407.342,931.281Z" transform="translate(-1017.678 -581.464)" fill="#005081"/>
        <path id="Path_145" data-name="Path 145" d="M1387.647,959.594s-152.692,214.123-90.754,250.366c84.134,49.229,163.391-214.133,163.391-214.133C1468.493,953.641,1415.322,933.375,1387.647,959.594Z" transform="translate(-1008.819 -569.332)" fill="#005081"/>
        <path id="Path_146" data-name="Path 146" d="M1176.374,1061.177S1381.6,1219,1425.361,1161.965c49.343-64.314-218.793-157.1-218.793-157.1S1172.027,1025.1,1176.374,1061.177Z" transform="translate(-1086.379 -527.676)" fill="#005081"/>
        <g id="Group_43" data-name="Group 43" transform="translate(223.813 517.96)">
          <path id="Path_147" data-name="Path 147" d="M1339.648,1083.01a3.3,3.3,0,0,1-2.345-.973c-17.462-17.462-81.208-46.991-81.851-47.287a3.318,3.318,0,0,1,2.78-6.025c2.666,1.231,65.469,30.326,83.761,48.622a3.318,3.318,0,0,1-2.345,5.664Z" transform="translate(-1253.524 -1028.422)" fill="#00426b"/>
        </g>
        <path id="Path_148" data-name="Path 148" d="M1364.1,926.693s-85.489,63.624-97.32,194.364-12.508,204.414-12.508,204.414h-27.638s-3.079-161.155,23.385-264.875c14.741-57.775,26.27-91.911,46.709-110.8C1312.981,934.769,1335.72,929.914,1364.1,926.693Z" transform="translate(-1049.448 -584.818)" fill="#005081"/>
        <g id="Group_44" data-name="Group 44" transform="translate(201.503 367.526)">
          <path id="Path_149" data-name="Path 149" d="M1243.956,1035.214a3.259,3.259,0,0,1-.68-.071,3.316,3.316,0,0,1-2.57-3.924c.526-2.52,13.188-62.014,39.908-88.734a3.318,3.318,0,0,1,4.693,4.691c-25.336,25.336-37.98,84.8-38.1,85.4A3.32,3.32,0,0,1,1243.956,1035.214Z" transform="translate(-1240.635 -941.512)" fill="#00426b"/>
        </g>
        <g id="Group_45" data-name="Group 45" transform="translate(197.251 507.943)">
          <path id="Path_150" data-name="Path 150" d="M1341.861,1164.665c-16.146,0-35.15-5.168-56.832-15.485a284.778,284.778,0,0,1-45.542-27.352,3.317,3.317,0,1,1,4.019-5.278c.769.585,77.213,58.168,121.288,36.606,44.833-21.931,91.933-127.479,92.4-128.542a3.318,3.318,0,1,1,6.069,2.683c-1.96,4.433-48.556,108.829-95.554,131.819A58.127,58.127,0,0,1,1341.861,1164.665Z" transform="translate(-1238.179 -1022.634)" fill="#00426b"/>
        </g>
      </g>
      <g id="Group_50" data-name="Group 50" transform="translate(186.774 1364.086)">
        <g id="Group_49" data-name="Group 49">
          <path id="Path_151" data-name="Path 151" d="M402.968,1760.955c1.369,16.854,4.668,33.9,10.8,47.971.376.859.753,1.7,1.16,2.531H436.1l.814-2.531H486.89c15.364-22.668,26.509-57.988,25.426-102.178-2.47-100.461,130.238-271.607,33.5-317.5-71.8-34.054-155.709,71.257-132.423,155.3,10.5,37.866,12.471,67.748,10.678,90.612-2.169,27.894-9.925,45.366-14.685,54.221-3.569,6.643-6.747,24.958-7.168,46.708A240.346,240.346,0,0,0,402.968,1760.955Z" transform="translate(-212.208 -1382.677)" fill="#005081" opacity="0.88"/>
          <g id="Group_48" data-name="Group 48" transform="translate(216.649 129.637)">
            <g id="Group_47" data-name="Group 47">
              <path id="Path_152" data-name="Path 152" d="M417.584,1756.714h7.246l.814-2.531c5.316-16.537,11.055-33.753,16.928-51.436,30.35-91.258,61.723-185.635,58.2-241.951a3.48,3.48,0,0,0-3.645-3.223,3.439,3.439,0,0,0-3.223,3.645c3.374,54.071-28.044,149.668-56.421,234.992-.481,1.446-.964,2.906-1.445,4.353-5.709,17.2-11.282,33.964-16.508,50.095l-1.13,3.524C418.128,1755.026,417.856,1755.885,417.584,1756.714Z" transform="translate(-417.584 -1457.572)" fill="#fff"/>
            </g>
          </g>
          <path id="Path_153" data-name="Path 153" d="M317.215,1614.229c54.507,53.318,125.975,57.972,144.155,172.878.135.829.27,1.672.391,2.531h45.516c0-.016.016-.016.016-.03.512-.784,1.039-1.627,1.611-2.5.677-1.1,1.385-2.274,2.108-3.524a142.589,142.589,0,0,0,17.953-54.448c2.5-20.71,1.115-45.577-8.359-73.968a376.96,376.96,0,0,0-16.328-41.826c-18.872-39.974-30.153-35.515-46.917-109.485-21.086-93.02-34.733-95.49-66.978-89.3C308.7,1430.266,260.16,1558.426,317.215,1614.229Z" transform="translate(-292.421 -1360.859)" fill="#005081"/>
        </g>
        <path id="Path_154" data-name="Path 154" d="M342.559,1453.863c35.183,42.383,66.632,140.691,94.362,227.432,3.448,10.77,6.837,21.387,10.2,31.75,5.392,16.7,10.694,32.8,15.964,47.971.286.843.573,1.7.874,2.531h7.289c0-.016,0-.016-.014-.03-.287-.829-.573-1.672-.859-2.5-7.848-22.518-15.784-47.128-24.008-72.837-.964-2.969-1.914-5.965-2.877-8.979-29.3-91.6-59.585-186.327-95.627-229.75a3.466,3.466,0,0,0-4.85-.438A3.426,3.426,0,0,0,342.559,1453.863Z" transform="translate(-256.358 -1334.767)" fill="#fff"/>
        <path id="Path_155" data-name="Path 155" d="M390.027,1628.932c.135.829.27,1.672.391,2.531h54.554l.814-2.531Z" transform="translate(-221.077 -1202.683)" fill="#fff"/>
      </g>
    </g>
    <path id="Path_156" data-name="Path 156" d="M438.833,727.641,299.521,954.6c-31.146,50.744,5.364,116,64.9,116H643.048c59.54,0,96.053-65.253,64.9-116L568.642,727.641C538.919,679.218,468.555,679.218,438.833,727.641Z" transform="translate(75.748 288.271)" fill="#ea6868"/>
    <g id="Group_52" data-name="Group 52" transform="translate(552.904 1067.012)">
      <circle id="Ellipse_14" data-name="Ellipse 14" cx="24.42" cy="24.42" r="24.42" transform="translate(2.737 195.939)" fill="#fff"/>
      <path id="Path_157" data-name="Path 157" d="M405.553,915.661h40l10.817-155s-28.552-42.828-59.026.692Z" transform="translate(-397.343 -741.827)" fill="#fff"/>
    </g>
    <path id="Path_158" data-name="Path 158" d="M1587.72,1076.153l-91.164,148.519c-31.146,50.744,5.366,116,64.9,116h182.327c59.54,0,96.052-65.252,64.9-116l-91.163-148.519C1687.806,1027.73,1617.442,1027.73,1587.72,1076.153Z" transform="translate(950.694 543.008)" fill="#ea6868"/>
    <g id="Group_53" data-name="Group 53" transform="translate(2581.385 1642.843)">
      <circle id="Ellipse_15" data-name="Ellipse 15" cx="20.151" cy="20.151" r="20.151" transform="translate(2.258 161.685)" fill="#fff"/>
      <path id="Path_159" data-name="Path 159" d="M1576.022,1217.944h33.005l8.926-127.907s-23.56-35.34-48.707.571Z" transform="translate(-1569.247 -1074.499)" fill="#fff"/>
    </g>
    <path id="Path_160" data-name="Path 160" d="M1244.447,534.235l-91.165,148.519c-31.146,50.744,5.366,116,64.907,116h182.325c59.541,0,96.053-65.253,64.9-116l-91.163-148.519C1344.533,485.812,1274.169,485.812,1244.447,534.235Z" transform="translate(699.786 146.905)" fill="#ea6868"/>
    <g id="Group_54" data-name="Group 54" transform="translate(1987.204 704.821)">
      <circle id="Ellipse_16" data-name="Ellipse 16" cx="20.151" cy="20.151" r="20.151" transform="translate(2.258 161.686)" fill="#fff"/>
      <path id="Path_161" data-name="Path 161" d="M1232.749,676.025h33.005l8.927-127.905s-23.56-35.342-48.707.571Z" transform="translate(-1225.974 -532.58)" fill="#fff"/>
    </g>
    <g id="Group_56" data-name="Group 56" transform="translate(539.11 1426.775)">
      <g id="Group_55" data-name="Group 55" transform="translate(0)">
        <path id="Path_162" data-name="Path 162" d="M413.018,950.806c-13.752,19.154-20.453,42.312-22.712,65.571-2.558,26.326.377,53.065,5.98,78.823a410.784,410.784,0,0,0,27.156,80.917,418.563,418.563,0,0,0,40.7,71.544c13.337,18.689,28.469,36.668,46.657,50.834q2.957,2.3,6.02,4.466c2.742,1.923,5.338-2.577,2.621-4.485-17.927-12.582-32.9-29.4-45.984-46.834a405.26,405.26,0,0,1-40.969-68.33,417.371,417.371,0,0,1-28.772-79.138c-6.326-25.379-10.088-51.646-8.916-77.845,1.032-23.016,6.141-46.325,18.239-66.17q2.1-3.453,4.468-6.733c1.952-2.718-2.55-5.314-4.485-2.621Z" transform="translate(-389.374 -949.671)" fill="#ea6868"/>
      </g>
    </g>
    <g id="Group_58" data-name="Group 58" transform="translate(648.168 1741.057)">
      <g id="Group_57" data-name="Group 57">
        <path id="Path_163" data-name="Path 163" d="M454.241,1181.939c14.915,3.349,30.463-.331,45.241,3.855a2.621,2.621,0,0,0,3.287-2.5c-.543-16.632.116-34.31-5.331-50.264-1.075-3.145-6.091-1.793-5.008,1.381,5.3,15.53,4.618,32.692,5.146,48.883l3.285-2.5c-14.836-4.2-30.335-.507-45.241-3.855-3.254-.73-4.644,4.276-1.38,5.008Z" transform="translate(-452.379 -1131.24)" fill="#ea6868"/>
      </g>
    </g>
    <g id="Group_60" data-name="Group 60" transform="translate(1642.614 697.316)">
      <g id="Group_59" data-name="Group 59">
        <path id="Path_164" data-name="Path 164" d="M1030.685,548.042c7.017-4.782,15.1-7.7,23.281-9.774a160.115,160.115,0,0,1,30.208-4.374,237.664,237.664,0,0,1,64.28,4.912c9.639,2.112,19.326,4.836,28.195,9.236,2.984,1.482,5.617-3,2.621-4.483-17.567-8.717-37.83-12.161-57.176-14.036-21.865-2.119-44.517-1.9-66.035,2.91-9.769,2.183-19.662,5.447-27.994,11.126-2.745,1.871-.151,6.373,2.621,4.483Z" transform="translate(-1026.896 -528.244)" fill="#ea6868"/>
      </g>
    </g>
    <g id="Group_62" data-name="Group 62" transform="translate(1796.869 683.84)">
      <g id="Group_61" data-name="Group 61">
        <path id="Path_165" data-name="Path 165" d="M1119.226,576.855c5.52-1.53,11.043-4.1,14.775-8.589a22.412,22.412,0,0,0,5.03-13.721c.427-11.869-5.925-23.529-12.539-32.938-1.908-2.712-6.411-.121-4.483,2.621,5.868,8.348,11.661,18.421,11.843,28.919a17.676,17.676,0,0,1-3.374,11.268c-3.09,3.99-7.9,6.119-12.632,7.432-3.216.891-1.85,5.9,1.38,5.008Z" transform="translate(-1116.012 -520.459)" fill="#ea6868"/>
      </g>
    </g>
    <g id="Group_64" data-name="Group 64" transform="translate(2391.229 1506.627)">
      <g id="Group_63" data-name="Group 63">
        <path id="Path_166" data-name="Path 166" d="M1561.283,1077.1a199.885,199.885,0,0,0-29.841-42.908c-11.813-12.907-25.8-24.519-41.93-31.586a79.454,79.454,0,0,0-27.622-6.8c-3.339-.182-3.329,5.013,0,5.193,33.961,1.847,61.846,28.681,80.44,54.964a202.38,202.38,0,0,1,14.471,23.757c1.539,2.969,6.02.346,4.483-2.621Z" transform="translate(-1459.389 -995.803)" fill="#ea6868"/>
      </g>
    </g>
    <g id="Group_66" data-name="Group 66" transform="translate(2358.753 1483.749)">
      <g id="Group_65" data-name="Group 65">
        <path id="Path_167" data-name="Path 167" d="M1460.963,1041.664c-6.463-15.34-7.729-32.334-15.526-47.194l-.931,3.552c7.647-4.488,16.475-9.087,25.384-10.219,3.27-.415,3.311-5.613,0-5.193-9.9,1.258-19.48,5.925-28,10.929a2.649,2.649,0,0,0-.931,3.552c7.569,14.426,8.72,31.044,15,45.954a2.688,2.688,0,0,0,3.194,1.812,2.61,2.61,0,0,0,1.814-3.193Z" transform="translate(-1440.627 -982.586)" fill="#ea6868"/>
      </g>
    </g>
  </g>
</svg>
