<svg xmlns="http://www.w3.org/2000/svg" width="auto" height="auto" viewBox="0 0 1928.066 1458.974">
  <g id="Group_1" data-name="Group 1" transform="translate(-46.991 -17)">
    <g id="Screen" transform="translate(244.761 530.332)">
      <rect id="Rectangle_1" data-name="Rectangle 1" width="1721.47" height="934.984" rx="12.5" transform="translate(3.501 3.784)" fill="#fff"/>
      <path id="Path_1" data-name="Path 1" d="M2143.541,1488.107H482.755c-19.195,0-34.755-15.891-34.755-35.493V580.493c0-19.6,15.56-35.493,34.755-35.493H2143.541c19.195,0,34.755,15.891,34.755,35.493v872.12c0,19.6-15.56,35.493-34.755,35.493ZM482.755,552.606c-15.081,0-27.307,12.486-27.307,27.887v872.12c0,15.4,12.226,27.888,27.307,27.888H2143.541c15.082,0,27.308-12.486,27.308-27.888V580.493c0-15.4-12.226-27.887-27.308-27.887Z" transform="translate(-448 -545)" fill="#005081"/>
      <path id="Path_2" data-name="Path 2" d="M2172.691,576.69v35.494H450V576.69c0-17.5,13.892-31.69,31.028-31.69H2141.662C2158.8,545,2172.691,559.188,2172.691,576.69Z" transform="translate(-444.93 -545)" fill="#3fd8f9"/>
      <path id="Path_3" data-name="Path 3" d="M1875.408,1030.579c-21.113.032-39.215,15.472-43.1,36.761H1757.4L1652.615,953.254h58.818c4.761,22.6,25.448,37.827,47.847,35.207s39.214-22.23,38.892-45.354-17.677-42.233-40.139-44.195-42.718,13.86-46.847,36.595H1571.8l-85.633-83.663h324.144c4.76,22.6,25.448,37.828,47.846,35.208s39.215-22.229,38.893-45.353-17.677-42.233-40.139-44.2-42.717,13.86-46.847,36.595H1466.151l-96.383-38.028h-136.3V681.984h356.469c3.5,22.83,23.3,39.224,45.788,37.917s40.358-19.888,41.323-42.978-15.287-43.171-37.588-46.446-43.392,11.32-48.783,33.76H1216.173V796.07H865.24L737.965,665.505H584.147c-3.5-22.83-23.3-39.224-45.788-37.917S498,647.476,497.036,670.566s15.287,43.171,37.588,46.446,43.392-11.32,48.783-33.76H730.675L840.65,796.07H786.626c-4.13-22.735-24.386-38.557-46.848-36.595s-39.818,21.072-40.139,44.2,16.494,42.733,38.893,45.353,43.086-12.6,47.847-35.208h429.794v83.663H682.829c-4.129-22.735-24.385-38.558-46.847-36.6s-39.818,21.071-40.14,44.2,16.494,42.733,38.892,45.354,43.086-12.6,47.847-35.207h533.591V1067.34H888.322c-2.871-22.919-22.206-39.877-44.723-39.224s-40.887,18.7-42.492,41.753,14.078,43.6,36.276,47.524,43.686-10.038,49.7-32.306h346.385V813.817h133.083l93.269,36.812,105.058,102.626h64.008l121.1,131.832h82.594c4.864,23.085,26.3,38.384,49.088,35.04s39.184-24.2,37.543-47.753-20.755-41.807-43.779-41.794Zm-121.1-114.086c14.673,0,26.567,12.2,26.567,27.254S1768.984,971,1754.311,971s-26.567-12.2-26.567-27.254,11.9-27.24,26.567-27.254Zm98.854-101.409c14.672,0,26.567,12.2,26.567,27.254s-11.9,27.254-26.567,27.254-26.567-12.2-26.567-27.254S1838.5,815.1,1853.166,815.084ZM1633.215,647.759c14.673,0,26.567,12.2,26.567,27.254s-11.894,27.254-26.567,27.254-26.567-12.2-26.567-27.254S1618.548,647.773,1633.215,647.759ZM540.874,699.731c-14.673,0-26.567-12.2-26.567-27.254s11.894-27.254,26.567-27.254,26.567,12.2,26.567,27.254S555.541,699.717,540.874,699.731ZM743.525,831.563c-14.673,0-26.567-12.2-26.567-27.254s11.894-27.254,26.567-27.254,26.567,12.2,26.567,27.254S758.192,831.549,743.525,831.563Zm-103.8,101.41c-14.673,0-26.567-12.2-26.567-27.254s11.894-27.254,26.567-27.254,26.567,12.2,26.567,27.254S654.4,932.958,639.728,932.973ZM844.851,1100.3c-14.673,0-26.567-12.2-26.567-27.254s11.894-27.254,26.567-27.254,26.567,12.2,26.567,27.254-11.9,27.24-26.567,27.253Zm1030.557,2.535c-14.673,0-26.568-12.2-26.568-27.254s11.9-27.254,26.568-27.254,26.567,12.2,26.567,27.254-11.9,27.24-26.567,27.254Z" transform="translate(-372.781 -418.32)" fill="#3fd8f9"/>
    </g>
    <g id="Man" transform="translate(1498.662 82.183)">
      <path id="Path_8" data-name="Path 8" d="M591.7,524.756l.76-7L581.94,496.716l45.634-24.566,8.214,22.462,9.33,25.5s-10.521,54.964-59.654,107.62V582.1Z" transform="translate(-332.6 -202.963)" fill="#fff"/>
      <path id="Path_9" data-name="Path 9" d="M584.961,636.347V584.019l6.921-63.583L580.6,497.847l50.375-27.127,18.812,51.414v.685c-.127.558-11.231,56.307-60.313,109.015Zm5.07-51.9v38.916c41.553-46.876,53.24-94.691,54.507-100.877l-16.3-44.519-40.868,22.006L597.13,519.5Z" transform="translate(-334.657 -205.158)" fill="#005081"/>
      <path id="Path_10" data-name="Path 10" d="M265,150.744H214.07l2.535-45.736.862-15.389h44.138l1.572,28.521Z" transform="translate(-78.486 32.448)" fill="#fff"/>
      <path id="Path_11" data-name="Path 11" d="M592.308,479.315H536l3.676-66.2h48.955Zm-50.933-5.07h45.634l-3.118-56.054h-39.4Z" transform="translate(-403.128 -293.587)" fill="#005081"/>
      <path id="Path_12" data-name="Path 12" d="M398.463,208.33H186.72l30.423,91.243Z" transform="translate(-120.474 214.696)"/>
      <path id="Path_13" data-name="Path 13" d="M622.1,420.316l-.38-40.766H576.668v.177H536.89l-.405,40.767c-6.972-5.806-9.71-.33-9.685,1.952.178,28.521,11.257,23.3,11.257,23.3,13.183,48.524,43.859,43.276,43.859,43.276,9.355-.938,28.826-7.378,38.637-43.479,0,0,11.054,5.248,11.256-23.3C631.835,419.962,629.1,414.485,622.1,420.316Z" transform="translate(-417.252 -345.125)" fill="#fff"/>
      <path id="Path_14" data-name="Path 14" d="M581.18,493.275c-7.885,0-31.741-3.423-43.352-43.1a7.885,7.885,0,0,1-4.462-1.242c-4.893-3.068-7.428-11.459-7.606-24.921a7.378,7.378,0,0,1,3.98-6.49,6.87,6.87,0,0,1,5.755,0l.38-38.814h39.752l2.535-.177h47.561l.38,38.789a6.972,6.972,0,0,1,5.755,0,7.378,7.378,0,0,1,3.98,6.49c0,13.462-2.535,21.854-7.606,24.921A7.911,7.911,0,0,1,623.8,450c-10.141,34.936-29.485,42.009-40.209,43.1A18.776,18.776,0,0,1,581.18,493.275ZM541.3,443.711l.786,2.916c12.448,45.786,40.716,41.527,40.995,41.476,9.837-.989,27.381-7.606,36.634-41.654l.786-2.915,2.738,1.293a2.941,2.941,0,0,0,2.535-.406c1.5-.989,5.07-5.07,5.07-20.612a2.536,2.536,0,0,0-1.09-1.876c-.862-.431-2.535.279-4.462,1.876l-4.107,3.423-.406-43.581H580.8l-2.535.178H541l-.431,43.606-4.056-3.423c-1.9-1.6-3.575-2.307-4.462-1.9a2.536,2.536,0,0,0-1.065,1.876c0,15.82,3.625,19.724,5.07,20.688a2.814,2.814,0,0,0,2.535.33Z" transform="translate(-418.849 -346.691)" fill="#005081"/>
      <path id="Path_15" data-name="Path 15" d="M622.587,393.019c-7.377-23.7-60.567-20.282-60.567-20.282-5.07.786-8.493-2.738-11.256-3.879-5.425-2.231-2.713,7-2.713,7-2.535-9.583-8.848-11.307-11.637-8.924-11.282,9.532-1.166,20.966-1.166,20.966-10.876-2.333-5.831,8.924-5.831,8.924a29.733,29.733,0,0,0,2.915,3.017c-3.346,10.927-.2,36.2-.2,36.2,1.546,15.516,4.665,14.73,4.665,14.73,1.166-1.141,2.713-13.589,2.713-13.589.3-10.141,6.465-23.324,9.2-28.648,24.338,7.91,57.981,4.589,57.981,4.589,6.211,8.544,6.972,24.059,6.972,24.059.406,8.544,4.285,10.876,4.285,10.876C633.869,412.819,622.587,393.019,622.587,393.019Z" transform="translate(-415.028 -365.971)" fill="#005081"/>
      <path id="Path_16" data-name="Path 16" d="M566.263,562.36,520.629,583.4s-28.065,37.446-24.566,44.468,22.234,22.209,26.9,19.876,24.566-35.088,24.566-35.088l32.755-16.378Z" transform="translate(-464.905 -64.469)" fill="#fff"/>
      <path id="Path_17" data-name="Path 17" d="M523.254,652.6c-3.3,0-8.087-2.535-14.3-7.175-5.3-4.107-11.611-10.141-13.716-14.349-3.8-7.606,16.073-35.493,24.794-47.1l.38-.507L569.116,561l15.947,38.561-34.2,17.214c-5.071,8.493-20.409,32.958-25.226,35.493a5.4,5.4,0,0,1-2.383.33Zm.456-65.079c-14.273,19.116-25.2,38.029-23.932,41.324,3.372,6.769,20.282,19.42,23.578,18.685,2.535-1.47,13.969-18.507,23.451-34.1l.38-.634,31.285-15.642-12.119-29.307Z" transform="translate(-466.439 -66.557)" fill="#005081"/>
      <path id="Path_18" data-name="Path 18" d="M537.708,522.135l6.541,59.984v45.634C495.117,575.1,484.57,520.132,484.57,520.132l11.992-32.781,5.578-15.211,45.634,24.566-10.521,21.042Z" transform="translate(-482.085 -202.978)" fill="#fff"/>
      <path id="Path_19" data-name="Path 19" d="M548.289,636.347l-4.386-4.69c-49.082-52.581-60.212-108.33-60.313-109.015v-.684l18.786-51.237,50.375,27.127-11.282,22.589,6.946,63.863ZM488.711,522.49c1.369,6.186,12.93,54,54.508,100.877V584.451l-7.1-64.851,9.761-19.521-40.969-22.107Z" transform="translate(-483.59 -205.158)" fill="#005081"/>
      <path id="Path_21" data-name="Path 21" d="M551.5,722.387c-5.831,4.665-32.553,4.868-32.553-4.487s26.9-47.966,26.9-47.966l-3.068-11.662-7.454-28.116,36.457-13.665s6.516,20.1,11.611,36.178c2.535,8.341,3.854,12.9,3.22,15.9C584.993,676.094,557.359,717.7,551.5,722.387Z" transform="translate(-429.304 18.633)" fill="#fff"/>
      <path id="Path_22" data-name="Path 22" d="M538.3,730.062a36.609,36.609,0,0,1-14.7-2.535,8.315,8.315,0,0,1-5.6-7.606c0-9.3,21.879-41.476,26.7-48.448L533.861,630.6l41.1-15.414.837,2.535s6.49,20.1,11.586,36.178c2.941,9.228,4.056,13.665,3.271,17.214-1.749,8.214-29.891,50.4-35.975,55.268C551.556,728.794,544.914,730.062,538.3,730.062Zm1.648-96.339,10.141,38.688-.685.963c-10.141,14.679-26.442,40.285-26.442,46.521,0,1.09.913,2.1,2.738,2.966,7.225,3.473,22.31,2.256,25.707-.456,5.248-4.208,32.654-45.153,34.2-52.378.507-2.358-.659-6.769-3.144-14.6-4.031-12.676-8.9-27.735-10.8-33.643Z" transform="translate(-430.778 16.637)" fill="#005081"/>
      <path id="Path_20" data-name="Path 20" d="M779.926,550.115,723.12,574.682l-11.037-28.065V695.181H557.789V544.259l-15.211,30.423-2-1.115L488.78,545.425l43.3-81.457a33.87,33.87,0,0,1,17.366-15.541L612.2,426.7s24.566,37.42,49.133,0l65.916,23.578a25.909,25.909,0,0,1,13.842,13.335Z" transform="translate(-475.622 -272.739)" fill="#3fd8f9"/>
      <rect id="Rectangle_7" data-name="Rectangle 7" width="216.408" height="146.232" transform="translate(51.617 301.943)" fill="#fff"/>
      <g id="Group_3" data-name="Group 3" transform="translate(125.096 331.359)">
        <path id="Path_82" data-name="Path 82" d="M0,78.932V0H78.932V78.932Z" fill="none"/>
        <g id="Group_2" data-name="Group 2" transform="translate(2.175 6.474)">
          <path id="Path_83" data-name="Path 83" d="M18.727,25.083A7.978,7.978,0,0,0,10.75,33.06V73.85a7.989,7.989,0,0,0,7.977,7.977H43.652L55.369,62.293H52.426l-.37-.017a2.659,2.659,0,0,1,0-5.266l.37-.035h6.2a8.86,8.86,0,0,1,14.677.779l8.351,13.915V33.061a7.978,7.978,0,0,0-7.977-7.977ZM30.25,41.038a5.318,5.318,0,1,1-5.318,5.318,5.322,5.322,0,0,1,5.318-5.318ZM52.426,42.81H68.363l.353.017a2.666,2.666,0,0,1,0,5.283l-.353.017H52.409l-.353-.017a2.669,2.669,0,0,1,0-5.284ZM24.045,55.219H36.454l.353.017a2.661,2.661,0,0,1,2.306,2.642v1.755l-.035.37-.09.55c-.8,3.581-4.023,5.3-8.739,5.3-4.964,0-8.262-1.9-8.829-5.851l-.035-.388V57.878l.017-.353a2.661,2.661,0,0,1,2.642-2.306ZM65.7,56.992a5.316,5.316,0,0,0-4.56,2.583L45.19,86.166a5.316,5.316,0,0,0,4.56,8.053H81.658a5.316,5.316,0,0,0,4.56-8.053L70.264,59.575A5.316,5.316,0,0,0,65.7,56.992Zm0,7.091a1.773,1.773,0,0,1,1.773,1.773V80.038a1.773,1.773,0,0,1-3.545,0V65.856A1.773,1.773,0,0,1,65.7,64.083Zm0,20.829a2.216,2.216,0,1,1-2.216,2.216A2.217,2.217,0,0,1,65.7,84.912Z" transform="translate(-10.75 -25.083)" fill="#3fd8f9"/>
        </g>
      </g>
      <path id="Path_23" data-name="Path 23" d="M724.377,635.373H503V484.07H724.5ZM507.944,630.3H719.306V489.14H508.071Z" transform="translate(-453.791 -184.662)" fill="#005081"/>
      <path id="Path_24" data-name="Path 24" d="M762.844,584.785c-37.192,40.564-225.636,79.3-225.636,79.3L515,619.645s14.806-7.327,36.761-17.747C607.333,575.177,708.692,527.616,731.407,525a47.307,47.307,0,0,1,28.547,5.578C776.788,540.368,784.774,560.777,762.844,584.785Z" transform="translate(-435.368 -122.337)" fill="#fff"/>
      <path id="Path_25" data-name="Path 25" d="M537.927,668.533,513.69,620.059l2.282-1.115c.152,0,15.059-7.428,36.786-17.9,57.575-27.659,157.59-74.46,180.458-77.1a49.947,49.947,0,0,1,30.017,6.085,33.137,33.137,0,0,1,17.189,23.3c1.192,7.606-.228,20-13.715,34.758h0c-37.319,40.817-219.273,78.44-226.878,80.063Zm-17.443-46.167,20.282,40.412c19.851-4.183,188.013-40.564,222.264-78.111h0c9.608-10.5,13.893-21.068,12.423-30.549a27.886,27.886,0,0,0-14.7-19.674,44.672,44.672,0,0,0-26.9-5.476c-22.133,2.535-121.691,49.133-178.86,76.665-16.809,8.062-29.51,14.3-34.5,16.733Z" transform="translate(-437.379 -123.917)" fill="#005081"/>
      <path id="Path_26" data-name="Path 26" d="M627.619,769.982l-2.256.685-43.378,13.361s-78.364-143.9-90.153-201.222a52.555,52.555,0,0,1,.2-24.719h0c9.33-33.44,57.956-33.719,73.522-16.226C584.343,562.93,627.619,769.982,627.619,769.982Z" transform="translate(-473.046 -113.589)" fill="#fff"/>
      <path id="Path_27" data-name="Path 27" d="M582.253,788.587l-.989-1.8c-3.22-5.907-78.592-144.889-90.356-201.931a55.443,55.443,0,0,1,.152-25.555v-.355c4.006-14.375,15.211-24.338,31.361-28.09,17.747-4.107,37.243.482,46.471,10.876,18.963,21.321,60.845,220.794,62.595,229.287l.482,2.256Zm-86.2-228.526v.253a50.5,50.5,0,0,0-.152,23.527c10.8,52.834,79.758,181.827,88.733,198.686l41.451-12.676c-15.212-72.026-46.648-208.6-60.846-224.672-7.961-8.95-25.834-12.955-41.553-9.3-8.29,1.825-22.766,7.5-27.583,24.186Z" transform="translate(-474.531 -115.132)" fill="#005081"/>
      <path id="Path_28" data-name="Path 28" d="M509.16,484.63H511.7l-.608,1.192Z" transform="translate(-444.334 -183.803)"/>
    </g>
    <g id="Padlock_key" data-name="Padlock key" transform="translate(798.71 487.983)">
      <path id="Path_4" data-name="Path 4" d="M1197.01,874.482C1193.8,764.6,1208.687,532.5,940.988,528.3c-261.478,1.742-242.4,244.735-242.471,346.186s89.766,99.792,89.7,0-19.49-261.844,152.771-262.092S1109.1,738.2,1109.176,874.482,1200.219,984.368,1197.01,874.482Z" transform="translate(-617.786 -528.296)" fill="#005081"/>
      <rect id="Rectangle_2" data-name="Rectangle 2" width="641.414" height="464.227" rx="9.69" transform="translate(3.803 346.299)" fill="#fff"/>
      <path id="Path_6" data-name="Path 6" d="M1287.151,1135.222H694.869a28.4,28.4,0,0,1-28.369-28.37V691.759a28.4,28.4,0,0,1,28.369-28.369h592.281a28.4,28.4,0,0,1,28.369,28.369v415.094a28.4,28.4,0,0,1-28.369,28.37ZM694.869,671a20.764,20.764,0,0,0-20.763,20.764v415.094a20.764,20.764,0,0,0,20.764,20.764h592.281a20.764,20.764,0,0,0,20.764-20.764V691.759A20.763,20.763,0,0,0,1287.151,671Z" transform="translate(-666.5 -320.894)" fill="#005081"/>
      <path id="Path_7" data-name="Path 7" d="M895.841,775.335a62.9,62.9,0,1,0-102.4,48.93L773.364,938.148a16,16,0,0,0,15.769,18.786h88.176a16.023,16.023,0,0,0,15.846-18.33L875.888,821.248A62.647,62.647,0,0,0,895.841,775.335Z" transform="translate(-507.544 -245.638)" fill="#005081"/>
    </g>
    <g id="Gear" transform="translate(1261.39 100.686)">
      <path id="Path_30" data-name="Path 30" d="M1021.128,448.237a79.293,79.293,0,0,0-7.428-18.609l6.363-14.882-22.31-21.778-14.882,6.364a72.484,72.484,0,0,0-18.609-7.428l-5.248-15.414H927.6L921.747,391.9a81.5,81.5,0,0,0-18.507,7.428l-14.983-6.338-21.778,21.778,6.364,14.882a72.852,72.852,0,0,0-7.428,18.609L850,454.094v31.361l15.414,5.831a81.134,81.134,0,0,0,7.428,18.608l-6.364,14.933,22.31,21.778,14.882-6.364a71.947,71.947,0,0,0,18.609,7.428l5.856,15.414h30.879l5.831-15.414a79.939,79.939,0,0,0,18.609-7.428l14.882,6.364,22.31-21.778-6.364-14.882a71.605,71.605,0,0,0,7.429-18.609l15.414-5.831V454.094Zm-78.111,59.527a38.028,38.028,0,1,1,27.122-11.141,38.282,38.282,0,0,1-27.122,11.141Z" transform="translate(-847.465 -374.056)" fill="#fff"/>
      <path id="Path_31" data-name="Path 31" d="M962.249,567.042H927.922l-6.009-15.795a72.3,72.3,0,0,1-16.834-6.769l-15.212,6.566L865.1,526.858l6.591-15.364a82.951,82.951,0,0,1-6.769-16.834L849,488.678V453.818l15.794-6.009a73.523,73.523,0,0,1,6.795-16.834L865,415.764l24.237-24.237,15.211,6.592a82.736,82.736,0,0,1,16.809-6.769l6.009-15.82h34.91l5.451,15.82a72.007,72.007,0,0,1,16.783,6.769l15.211-6.566,24.769,24.186-6.566,15.364a84.457,84.457,0,0,1,6.744,16.783l16.352,6.008v34.885l-15.794,5.983a73.066,73.066,0,0,1-6.769,16.834l6.566,15.364-24.769,24.186-15.212-6.566a84.875,84.875,0,0,1-16.834,6.744Zm-30.828-5.071h27.33l5.679-15.009,1.191-.38a77.6,77.6,0,0,0,18-7.2l1.09-.583,14.451,6.186,19.851-19.395-6.161-14.4.583-1.09a68.865,68.865,0,0,0,7.2-17.949l.3-1.318,15.034-5.7V457.241l-15.541-5.7-.329-1.318a78.024,78.024,0,0,0-7.2-18l-.583-1.065,6.186-14.426-19.876-19.395-14.451,6.186-1.09-.583a68.868,68.868,0,0,0-17.95-7.2l-1.369-.3L958.7,380.4H930.812l-5.7,15.009-1.293.33a78.048,78.048,0,0,0-18,7.2l-1.065.583L890.3,397.333,870.93,416.7l6.186,14.451-.583,1.065a68.646,68.646,0,0,0-7.2,17.975l-.3,1.318-14.958,5.805V485.2l15.008,5.679.33,1.293a77.591,77.591,0,0,0,7.2,18l.583,1.09-6.161,14.4,19.851,19.395,14.476-6.186,1.065.583a68.654,68.654,0,0,0,17.975,7.2l1.318.3Zm13.132-50.2a40.817,40.817,0,1,1,40.792-40.8,40.817,40.817,0,0,1-40.792,40.8Zm0-76.539a35.747,35.747,0,1,0,35.722,35.738,35.747,35.747,0,0,0-35.722-35.738Z" transform="translate(-849 -375.53)" fill="#005081"/>
    </g>
    <g id="Plant" transform="translate(46.991 732.112)">
      <circle id="Ellipse_7" data-name="Ellipse 7" cx="90.748" cy="90.748" r="90.748" transform="translate(32.149 0)" fill="#3fd8f9"/>
      <line id="Line_1" data-name="Line 1" y1="507.047" transform="translate(122.98 33.996)" fill="#fff"/>
      <rect id="Rectangle_11" data-name="Rectangle 11" width="7.606" height="507.047" transform="translate(119.178 33.996)" fill="#005081"/>
      <circle id="Ellipse_8" data-name="Ellipse 8" cx="90.748" cy="90.748" r="90.748" transform="translate(83.023 224.121)" fill="#3fd8f9"/>
      <line id="Line_2" data-name="Line 2" y1="439.863" transform="translate(173.685 254.562)" fill="#fff"/>
      <rect id="Rectangle_12" data-name="Rectangle 12" width="7.606" height="439.863" transform="translate(169.882 254.562)" fill="#005081"/>
      <path id="Path_58" data-name="Path 58" d="M668.133,901.659A148.311,148.311,0,1,1,390.2,829.734l259.1-.3a147.575,147.575,0,0,1,18.837,72.229Z" transform="translate(-367.661 -310.114)" fill="#fff"/>
      <path id="Path_59" data-name="Path 59" d="M522.127,1056.263A152.114,152.114,0,0,1,389.179,830.2l1.09-1.952,263.664-.3,1.09,1.927a152.114,152.114,0,0,1-132.593,226.4ZM394.757,835.85a144.508,144.508,0,0,0,127.37,212.807h.178a144.508,144.508,0,0,0,127.04-213.111Z" transform="translate(-369.991 -312.401)" fill="#005081"/>
      <line id="Line_3" data-name="Line 3" x2="38.028" y2="56.409" transform="translate(135.657 271.041)" fill="#fff"/>
      <path id="Path_84" data-name="Path 84" d="M0,0H7.615V68.105H0Z" transform="translate(132.722 273.612) rotate(-34.007)" fill="#005081"/>
      <line id="Line_4" data-name="Line 4" x1="39.874" y2="56.374" transform="translate(173.772 307.995)" fill="#fff"/>
      <rect id="Rectangle_14" data-name="Rectangle 14" width="68.958" height="7.606" transform="matrix(0.588, -0.809, 0.809, 0.588, 170.607, 362.657)" fill="#005081"/>
      <line id="Line_5" data-name="Line 5" x2="40.564" y2="46.623" transform="translate(82.417 55.546)" fill="#fff"/>
      <rect id="Rectangle_15" data-name="Rectangle 15" width="7.606" height="61.809" transform="translate(79.601 57.895) rotate(-41.03)" fill="#005081"/>
      <line id="Line_6" data-name="Line 6" x1="43.099" y2="51.972" transform="translate(122.98 91.039)" fill="#fff"/>
      <rect id="Rectangle_16" data-name="Rectangle 16" width="67.513" height="7.606" transform="translate(120.078 140.581) rotate(-50.35)" fill="#005081"/>
    </g>
    <g id="Fingerprint" transform="translate(412.695 1176.817)">
      <rect id="Rectangle_17" data-name="Rectangle 17" width="238.971" height="244.65" fill="#fff" stroke="#005081" stroke-miterlimit="10" stroke-width="3"/>
      <path id="Path_60" data-name="Path 60" d="M665.363,885.23c-12.9-32.958-31.234-53.8-54.457-61.91-32.451-11.307-63.711,6.516-64.04,6.693l-2.256-3.9c1.344-.786,33.288-19.04,67.716-7.073,24.541,8.67,43.834,30.271,57.246,64.445Z" transform="translate(-467.615 -777.001)" fill="#005081"/>
      <path id="Path_61" data-name="Path 61" d="M4.437,36.722,0,35.969A177.512,177.512,0,0,0,4.462,0H9.076A181.723,181.723,0,0,1,4.437,36.723Z" transform="translate(193.337 121.843) rotate(-1)" fill="#005081"/>
      <path id="Path_62" data-name="Path 62" d="M538.8,879.722l-4.386-1.09c.38-1.521,9.609-37.217,38.891-51.542,17.316-8.493,38.029-7.606,61.15,2.688l-1.825,4.132c-21.98-9.71-41.274-10.648-57.322-2.789C547.872,844.559,538.872,879.368,538.8,879.722Z" transform="translate(-483.274 -767.26)" fill="#005081"/>
      <path id="Path_63" data-name="Path 63" d="M588.6,948.1l-4.234-1.572c30.549-82.928-5.73-114.39-6.085-114.694l2.865-3.5C582.767,829.684,620.339,861.932,588.6,948.1Z" transform="translate(-415.924 -756.492)" fill="#005081"/>
      <rect id="Rectangle_18" data-name="Rectangle 18" width="17.595" height="4.513" transform="matrix(0.64, -0.768, 0.768, 0.64, 44.879, 173.56)" fill="#005081"/>
      <path id="Path_64" data-name="Path 64" d="M531.8,884.494l-3.422-2.941c0-.152,13.107-15.49,15.211-30.423l4.462.659C545.772,868.015,532.487,883.759,531.8,884.494Z" transform="translate(-492.532 -721.503)" fill="#005081"/>
      <path id="Path_65" data-name="Path 65" d="M542.285,906.325,538,905.057c0-.253,6.693-24.642,6.693-35.493,0-13.031,17.062-40.564,36.076-40.564v4.513c-16.555,0-31.564,25.961-31.564,36.076C549.13,881.1,542.563,905.285,542.285,906.325Z" transform="translate(-477.763 -755.478)" fill="#005081"/>
      <path id="Path_66" data-name="Path 66" d="M613.428,888.3l-4.487-.355c1.344-18.1-2.713-32.2-12.068-41.857-14.552-15.059-37.217-14.324-37.445-14.324l-.177-4.513c1.014,0,24.921-.786,40.868,15.719C610.386,853.595,614.873,868.832,613.428,888.3Z" transform="translate(-445.139 -758.168)" fill="#005081"/>
      <path id="Path_67" data-name="Path 67" d="M574.824,917.378l-3.854-2.358c.178-.3,17.747-29.206,19.978-57.6l4.487.33C593.179,887.26,575.559,916.161,574.824,917.378Z" transform="translate(-427.146 -711.847)" fill="#005081"/>
      <path id="Path_68" data-name="Path 68" d="M539.965,937.509l-3.625-2.535c.228-.33,24.262-33.262,26.595-50.7-.228-2.941-1.724-28.42,9.685-39.854.583-.532,12.98-11.738,29.459-10.141,11.155,1.014,21.347,7.606,30.423,19.5l-3.6,2.713c-8.164-10.876-17.265-16.834-27.1-17.747-14.5-1.344-25.808,8.9-25.935,9.025-10.344,10.344-8.316,36.2-8.29,36.457v.3C565.14,903.03,541,936.115,539.965,937.509Z" transform="translate(-480.311 -747.62)" fill="#005081"/>
      <path id="Path_69" data-name="Path 69" d="M565.527,931.759l-3.347-3.042c23.958-26.113,26.443-76.97,26.468-77.477l4.513.2C593.059,853.547,590.575,904.379,565.527,931.759Z" transform="translate(-440.641 -721.335)" fill="#005081"/>
      <path id="Path_70" data-name="Path 70" d="M546.211,914.753l-3.651-2.662c.254-.33,24.364-33.516,24.364-57.271h4.64C571.563,880.046,547.225,913.358,546.211,914.753Z" transform="translate(-470.762 -715.839)" fill="#005081"/>
      <path id="Path_71" data-name="Path 71" d="M584.547,905.651l-4.36-1.192a190.721,190.721,0,0,0,6.693-44.493c0-14.856-13.918-15.718-15.642-15.769-13.513,2.054-13.665,17.366-13.665,18.026H553.06c0-6.9,3.7-20.51,17.747-22.513h.3c7.023,0,20.282,4.234,20.282,20.282A192.035,192.035,0,0,1,584.547,905.651Z" transform="translate(-454.642 -739.036)" fill="#005081"/>
      <rect id="Rectangle_19" data-name="Rectangle 19" width="32.502" height="4.513" transform="matrix(0.555, -0.832, 0.832, 0.555, 103.3, 207.612)" fill="#005081"/>
      <path id="Path_72" data-name="Path 72" d="M552.471,933.815l-3.7-2.535c.33-.431,31.107-44.924,28.9-84.246l4.513-.254C584.466,887.623,553.79,931.964,552.471,933.815Z" transform="translate(-461.229 -728.182)" fill="#005081"/>
      <path id="Path_73" data-name="Path 73" d="M529.5,903.461l-3.879-2.307a59.553,59.553,0,0,0,6.439-28.141v-.33c.2-1.318,4.868-32.654,25.657-48.8l2.763,3.575c-18.659,14.5-23.578,43.4-23.933,45.634a63.2,63.2,0,0,1-7.048,30.372Z" transform="translate(-496.769 -763.339)" fill="#005081"/>
    </g>
    <g id="Shield" transform="translate(361.233 184.87)">
      <path id="Path_74" data-name="Path 74" d="M1380.834,513.462c-142.226,9.609-211.971-69.567-220.565-80.164,0,0-.152-.963-.456-.558-.3-.406-.457.558-.457.558-8.67,10.6-78.414,89.773-220.565,80.164,0,0-25.175,349.71,220.565,434.412v.329l.457-.152.456.152v-.329C1406.009,863.172,1380.834,513.462,1380.834,513.462Z" transform="translate(-934.224 -428.431)" fill="#fff"/>
      <path id="Path_75" data-name="Path 75" d="M1166.321,956.078l-4.26-1.471-4.259,1.471v-2.966c-55.775-19.749-101.916-54.761-137.46-103.945-28.775-39.955-50.7-89.291-64.927-146.663a670.778,670.778,0,0,1-18.254-186.619l.279-3.777,3.777.254c138.348,9.3,207.407-66.778,216.94-78.212a4.083,4.083,0,0,1,2.763-2.535l2.384-.634.912,1.065a4.105,4.105,0,0,1,1.749,2.079c9.532,11.434,78.592,87.541,216.94,78.212l3.777-.254.279,3.778A670.8,670.8,0,0,1,1368.683,702.3c-14.3,57.372-36.152,106.708-64.927,146.663-35.493,49.31-81.761,84.322-137.46,103.945ZM944.538,520.017a670.325,670.325,0,0,0,18.3,180.686c22.031,88.252,74.485,202.438,199.218,245.918h0C1286.87,903.193,1339.325,788.9,1361.33,700.577a668.155,668.155,0,0,0,18.253-180.483C1247.5,527.7,1177.5,458.589,1162.137,441.3v0c-15.515,17.24-85.563,86.274-217.6,78.744Z" transform="translate(-936.549 -430.98)" fill="#005081"/>
      <path id="Path_76" data-name="Path 76" d="M1296.857,519.074c-108.33,7.3-161.444-52.986-168.035-61.048,0,0,0-.735-.355-.431-.228-.3-.355.431-.355.431-6.591,8.062-59.7,68.451-168.035,61.048,0,0-19.192,266.326,168.035,330.848v.253h.71v-.253C1316.024,785.4,1296.857,519.074,1296.857,519.074Z" transform="translate(-901.281 -390.234)" fill="#fff"/>
      <path id="Path_77" data-name="Path 77" d="M1126.914,857.872l-.177-2.535c-76.564-27.355-129.88-93.5-154.294-191.461a512.121,512.121,0,0,1-13.919-142.429l.279-3.777,3.778.253c104.578,7.073,156.88-50.2,164.385-59.122a4.033,4.033,0,0,1,2.535-2.307l2.535-.634.938,1.166a3.929,3.929,0,0,1,1.471,1.775c7.605,8.924,59.806,66.17,164.41,59.122l3.777-.253.279,3.777a512.131,512.131,0,0,1-13.919,142.429c-24.414,97.885-77.679,164-154.116,191.385v2.687l-4.133-1.242ZM965.926,525.756A508.125,508.125,0,0,0,979.87,662.228c16.708,66.9,56.46,153.458,150.847,186.441,94.463-32.958,134.19-119.638,150.9-186.644a508.2,508.2,0,0,0,13.893-136.269c-98.468,5.273-151.607-45.178-164.79-59.578v.025c-13.234,14.324-66.322,64.724-164.791,59.451Z" transform="translate(-903.53 -392.784)" fill="#005081"/>
      <path id="Path_78" data-name="Path 78" d="M1107.178,514.319h0a8.417,8.417,0,0,0-11.89,0l-38.029,37.75-38.028-37.75a8.417,8.417,0,0,0-11.89,0h0a8.442,8.442,0,0,0,0,11.916l38.029,37.648-37.065,36.71a8.418,8.418,0,0,0,0,11.89h0a8.417,8.417,0,0,0,11.89,0l37.192-36.812,37.192,36.812a8.418,8.418,0,0,0,11.891,0h0a8.417,8.417,0,0,0,0-11.89l-37.066-36.71,38.029-37.648a8.443,8.443,0,0,0-.255-11.916Z" transform="translate(-831.645 -306.81)" fill="#005081"/>
      <path id="Path_79" data-name="Path 79" d="M1090.468,705.275a107.747,107.747,0,1,1,107.747-107.747A107.747,107.747,0,0,1,1090.468,705.275Zm0-198.661a90.939,90.939,0,1,0,90.939,90.93A90.939,90.939,0,0,0,1090.468,506.614Z" transform="translate(-865.665 -340.708)" fill="#3fd8f9"/>
    </g>
    <g id="Enviroment" transform="translate(79.141 18.5)">
      <path id="Path_80" data-name="Path 80" d="M162.8,211.3,137.445,132.7,53.782,158.057,33.5,82" transform="translate(62.402 12.786)" fill="#fff" stroke="#005081" stroke-miterlimit="10" stroke-width="3"/>
      <path id="Path_81" data-name="Path 81" d="M0,129.3,25.352,50.7l83.663,25.352L129.3,0" transform="translate(1763.899 53.179) rotate(14)" fill="#fff" stroke="#005081" stroke-miterlimit="10" stroke-width="3"/>
      <circle id="Ellipse_9" data-name="Ellipse 9" cx="32.312" cy="32.312" r="32.312" transform="translate(0 369.868)" fill="#fff" stroke="#005081" stroke-miterlimit="10" stroke-width="3"/>
      <circle id="Ellipse_10" data-name="Ellipse 10" cx="32.999" cy="32.999" r="32.999" transform="translate(1680.22 0)" fill="#fff" stroke="#005081" stroke-miterlimit="10" stroke-width="3"/>
    </g>
  </g>
</svg>
