<svg xmlns="http://www.w3.org/2000/svg" width="35" height="35" viewBox="0 0 20 20">
  <g id="Analytics_Icon" data-name="Analytics Icon" transform="translate(-2 -2)">
    <g id="Rectangle_773" data-name="Rectangle 773" transform="translate(2 2)" fill="none">
      <path d="M0,10C0,6.262,0,4.392.8,3A6,6,0,0,1,3,.8C4.392,0,6.262,0,10,0s5.608,0,7,.8A6,6,0,0,1,19.2,3c.8,1.392.8,3.262.8,7s0,5.608-.8,7A6,6,0,0,1,17,19.2c-1.392.8-3.262.8-7,.8s-5.608,0-7-.8A6,6,0,0,1,.8,17C0,15.608,0,13.738,0,10Z" stroke="none"/>
      <path d="M 10 1.5 C 6.533969879150391 1.5 4.794230461120605 1.5 3.75 2.102890014648438 C 3.066860198974609 2.497299194335938 2.497299194335938 3.066860198974609 2.102890014648438 3.75 C 1.5 4.794230461120605 1.5 6.533969879150391 1.5 10 C 1.5 13.46603012084961 1.5 15.20577049255371 2.102890014648438 16.25 C 2.497299194335938 16.93313980102539 3.066860198974609 17.50271034240723 3.75 17.89710998535156 C 4.794230461120605 18.5 6.533969879150391 18.5 10 18.5 C 13.46603012084961 18.5 15.20577049255371 18.5 16.25 17.89710998535156 C 16.93313980102539 17.50270080566406 17.50270080566406 16.93313980102539 17.89710998535156 16.25 C 18.5 15.20577049255371 18.5 13.46603012084961 18.5 10 C 18.5 6.533969879150391 18.5 4.794230461120605 17.89710998535156 3.75 C 17.50271034240723 3.066860198974609 16.93313980102539 2.497299194335938 16.25 2.102890014648438 C 15.20577049255371 1.5 13.46603012084961 1.5 10 1.5 M 10 0 C 13.73846054077148 0 15.60770034790039 0 17 0.8038501739501953 C 17.912109375 1.330459594726562 18.66954040527344 2.087879180908203 19.1961498260498 3 C 20 4.39231014251709 20 6.261540412902832 20 10 C 20 13.73846054077148 20 15.60770034790039 19.1961498260498 17 C 18.66954040527344 17.912109375 17.912109375 18.66954040527344 17 19.1961498260498 C 15.60770034790039 20 13.73846054077148 20 10 20 C 6.261540412902832 20 4.39231014251709 20 3 19.1961498260498 C 2.087879180908203 18.66954040527344 1.330459594726562 17.912109375 0.8038501739501953 17 C 0 15.60770034790039 0 13.73846054077148 0 10 C 0 6.261540412902832 0 4.39231014251709 0.8038501739501953 3 C 1.330459594726562 2.087879180908203 2.087879180908203 1.330459594726562 3 0.8038501739501953 C 4.39231014251709 0 6.261540412902832 0 10 0 Z" stroke="none" fill="#313131"/>
    </g>
    <g id="Rectangle_774" data-name="Rectangle 774" transform="translate(13 6)" fill="none">
      <path d="M0,2.5a2.5,2.5,0,1,1,5,0v8a2.5,2.5,0,0,1-5,0Z" stroke="none"/>
      <path d="M 2.5 1.5 C 1.948600053787231 1.5 1.5 1.948599815368652 1.5 2.5 L 1.5 10.5 C 1.5 11.05140018463135 1.948600053787231 11.5 2.5 11.5 C 3.051399946212769 11.5 3.5 11.05140018463135 3.5 10.5 L 3.5 2.5 C 3.5 1.948599815368652 3.051399946212769 1.5 2.5 1.5 M 2.5 0 C 3.880710124969482 0 5 1.119290351867676 5 2.5 L 5 10.5 C 5 11.88070964813232 3.880710124969482 13 2.5 13 C 1.119290113449097 13 0 11.88070964813232 0 10.5 L 0 2.5 C 0 1.119290351867676 1.119290113449097 0 2.5 0 Z" stroke="none" fill="#313131"/>
    </g>
    <g id="Rectangle_775" data-name="Rectangle 775" transform="translate(6 11)" fill="none">
      <path d="M0,2.5a2.5,2.5,0,0,1,5,0v3a2.5,2.5,0,0,1-5,0Z" stroke="none"/>
      <path d="M 2.5 1.5 C 1.948600053787231 1.5 1.5 1.948599815368652 1.5 2.5 L 1.5 5.5 C 1.5 6.051400184631348 1.948600053787231 6.5 2.5 6.5 C 3.051399946212769 6.5 3.5 6.051400184631348 3.5 5.5 L 3.5 2.5 C 3.5 1.948599815368652 3.051399946212769 1.5 2.5 1.5 M 2.5 0 C 3.880710124969482 0 5 1.119289875030518 5 2.5 L 5 5.5 C 5 6.880710124969482 3.880710124969482 8 2.5 8 C 1.119290113449097 8 0 6.880710124969482 0 5.5 L 0 2.5 C 0 1.119289875030518 1.119290113449097 0 2.5 0 Z" stroke="none" fill="#313131"/>
    </g>
  </g>
</svg>
