<svg xmlns="http://www.w3.org/2000/svg" width="31.057" height="31.057" viewBox="0 0 31.057 31.057">
  <g id="Group_1" data-name="Group 1" transform="translate(-0.943 -0.943)">
    <path id="Path_1" data-name="Path 1" d="M19.727,2.091a1.483,1.483,0,0,1,1.936-1.055A16,16,0,1,1,1.036,21.663a1.483,1.483,0,0,1,1.055-1.936,1.77,1.77,0,0,1,2.055,1.1A12.8,12.8,0,1,0,20.829,4.146,1.77,1.77,0,0,1,19.727,2.091Z" fill="#44a5ff"/>
    <path id="Path_2" data-name="Path 2" d="M14.045,14.045,4.994,4.994m0,0,.054,6.842M4.994,4.994l6.842.054" fill="none" stroke="#44a5ff" stroke-linecap="round" stroke-linejoin="round" stroke-width="2"/>
    <path id="Path_3" data-name="Path 3" d="M22.109,9.891a.89.89,0,0,1,1.323.033A9.6,9.6,0,0,1,9.923,23.432a.89.89,0,0,1-.033-1.323,1.062,1.062,0,0,1,1.4-.044A7.68,7.68,0,0,0,22.065,11.289,1.062,1.062,0,0,1,22.109,9.891Z" fill="#44a5ff"/>
  </g>
</svg>