<svg xmlns="http://www.w3.org/2000/svg" width="35" height="35" viewBox="0 0 20 20">
  <g id="Group_971" data-name="Group 971" transform="translate(-42 -678)">
    <rect id="Rectangle_967" data-name="Rectangle 967" width="20" height="20" transform="translate(42 698) rotate(-90)" fill="none"/>
    <path id="Union" d="M9.506.166a.857.857,0,0,0-1.012,0L5.01,2.705a.9.9,0,0,0-.2,1.24.86.86,0,0,0,1.215.207L8.129,2.616v8.939a.871.871,0,1,0,1.742,0V2.616l2.107,1.536a.86.86,0,0,0,1.215-.207.9.9,0,0,0-.2-1.24Z" transform="translate(44 697) rotate(-90)" fill="#313131"/>
    <path id="Union-2" data-name="Union" d="M1.742,9.077A1.36,1.36,0,0,1,3.088,7.7H4.935a.889.889,0,0,0,0-1.778H3.088A3.12,3.12,0,0,0,0,9.077v2.478A4.4,4.4,0,0,0,4.355,16h9.29A4.4,4.4,0,0,0,18,11.556V9.077a3.12,3.12,0,0,0-3.088-3.152H13.065a.889.889,0,0,0,0,1.778h1.848a1.36,1.36,0,0,1,1.346,1.374v2.478a2.64,2.64,0,0,1-2.613,2.667H4.355a2.64,2.64,0,0,1-2.613-2.667Z" transform="translate(44 697) rotate(-90)" fill="#313131"/>
  </g>
</svg>
